<?xml version="1.0" encoding="utf-8"?>
<!-- Generator: Adobe Illustrator 16.0.0, SVG Export Plug-In . SVG Version: 6.00 Build 0)  -->
<!DOCTYPE svg PUBLIC "-//W3C//DTD SVG 1.1//EN" "http://www.w3.org/Graphics/SVG/1.1/DTD/svg11.dtd">
<svg version="1.1" id="Layer_1" xmlns="http://www.w3.org/2000/svg" xmlns:xlink="http://www.w3.org/1999/xlink" x="0px" y="0px"
	 width="493px" height="312px" viewBox="3 0 493 312" enable-background="new 3 0 493 312" xml:space="preserve">
<radialGradient id="rect3092_1_" cx="-2331.3691" cy="1306.5449" r="175.0078" fx="-2330.749" fy="1316.1801" gradientTransform="matrix(0.0826 -1.0073 -4.8471 -0.487 6476.209 -1400.8098)" gradientUnits="userSpaceOnUse">
	<stop  offset="0" style="stop-color:#0088AA"/>
	<stop  offset="1" style="stop-color:#FFFFFF;stop-opacity:0"/>
</radialGradient>
<rect id="rect3092" x="3" fill="url(#rect3092_1_)" width="493" height="312"/>
<radialGradient id="rect4050_1_" cx="-1454.043" cy="1695.9072" r="175.0066" fx="-1452.1906" fy="1726.7789" gradientTransform="matrix(-0.2635 -2.6425 -1.1245 0.1324 1516.2183 -3757.2021)" gradientUnits="userSpaceOnUse">
	<stop  offset="0" style="stop-color:#00AA44"/>
	<stop  offset="1" style="stop-color:#FFFFFF;stop-opacity:0"/>
</radialGradient>
<rect id="rect4050" x="3" fill="url(#rect4050_1_)" width="250" height="312"/>
<g>
	<g>
		<path fill="#FFFFFF" d="M79.829,79.071c-0.506,0.009-0.972,0.313-1.172,0.813c0,0-0.369,0.868-0.605,1.456
			c-0.177,0.44-1.01,0.459-1.417,0.435c-0.991-0.134-1.985-0.187-2.969-0.171c-0.825,0.016-1.649,0.091-2.458,0.209l-0.02-0.019
			c0.001,0-1.396,0.222-1.645-0.36s-0.625-1.455-0.625-1.455c-0.282-0.66-1.042-0.962-1.702-0.681L63,81.094
			c-0.659,0.28-0.961,1.041-0.681,1.701c0,0,0.377,0.855,0.625,1.438c0.249,0.582-0.889,1.456-0.889,1.456
			c-1.36,1.056-2.576,2.312-3.63,3.726h-0.019c-0.001,0-0.85,1.144-1.438,0.907c-0.588-0.237-1.457-0.587-1.457-0.587
			c-0.666-0.268-1.415,0.072-1.683,0.738l-1.702,4.234c-0.267,0.666,0.054,1.416,0.718,1.683c0,0,0.87,0.351,1.457,0.587
			c0.588,0.235,0.396,1.646,0.396,1.646c-0.222,1.765-0.196,3.518,0.057,5.236c0,0,0.204,1.396-0.378,1.646
			c-0.583,0.247-1.437,0.623-1.437,0.623c-0.66,0.282-0.962,1.043-0.681,1.703l1.777,4.197c0.281,0.66,1.061,0.98,1.721,0.698
			c0,0,0.854-0.374,1.437-0.623c0.582-0.248,1.456,0.87,1.456,0.87c1.058,1.364,2.308,2.592,3.725,3.648v0.02
			c0.03,0.021,0.065,0.035,0.094,0.056c0.219,0.172,1.021,0.869,0.813,1.381c-0.237,0.588-0.586,1.456-0.586,1.456
			c-0.267,0.665,0.054,1.414,0.718,1.683l4.255,1.701c0.667,0.268,1.415-0.053,1.683-0.718c0,0,0.35-0.869,0.585-1.456
			c0.208-0.513,1.257-0.441,1.532-0.417c1.869,0.247,3.742,0.214,5.559-0.075c0.407-0.032,1.251-0.039,1.437,0.397
			c0.249,0.583,0.605,1.456,0.605,1.456c0.281,0.66,1.061,0.963,1.721,0.681l4.197-1.796c0.66-0.282,0.962-1.042,0.681-1.702
			c0,0-0.356-0.854-0.605-1.437c-0.249-0.582,0.87-1.457,0.87-1.457c1.427-1.104,2.712-2.415,3.801-3.913
			c0.265-0.311,0.845-0.896,1.286-0.718c0.588,0.235,1.455,0.585,1.455,0.585c0.667,0.269,1.435-0.053,1.703-0.718l1.702-4.254
			c0.267-0.667-0.053-1.415-0.719-1.684c0,0-0.869-0.349-1.456-0.585c-0.527-0.213-0.44-1.314-0.416-1.552
			c0.235-1.798,0.203-3.581-0.056-5.331c-0.001,0-0.012-0.074-0.02-0.151c-0.003-0.019,0.003-0.038,0-0.057
			c-0.032-0.408-0.04-1.251,0.397-1.437c0.582-0.25,1.455-0.625,1.455-0.625c0.66-0.281,0.963-1.041,0.681-1.701l-1.795-4.198
			c-0.282-0.66-1.042-0.981-1.703-0.699c0,0-0.873,0.376-1.455,0.623c-0.583,0.249-1.437-0.868-1.437-0.868h-0.02
			c-1.06-1.367-2.304-2.611-3.724-3.669c0.001,0-1.146-0.83-0.908-1.418c0.236-0.588,0.586-1.475,0.586-1.475
			c0.268-0.667-0.053-1.416-0.719-1.683l-4.235-1.702C80.174,79.099,79.998,79.067,79.829,79.071z M73.816,90.831
			c1.325-0.024,2.683,0.212,3.99,0.737c5.228,2.104,7.755,8.046,5.653,13.273c-2.103,5.229-8.044,7.775-13.272,5.672
			c-5.229-2.103-7.756-8.044-5.654-13.272C66.11,93.321,69.841,90.901,73.816,90.831z M73.665,97.809
			c-1.634,0.166-2.912,1.555-2.912,3.233c0,1.79,1.462,3.233,3.252,3.233s3.234-1.443,3.234-3.233s-1.444-3.233-3.234-3.233
			C73.893,97.809,73.774,97.797,73.665,97.809z"/>
		<path fill="none" stroke="#FFFFFF" stroke-width="1.9393" d="M79.829,79.071c-0.506,0.009-0.972,0.313-1.172,0.813
			c0,0-0.369,0.868-0.605,1.456c-0.177,0.44-1.01,0.459-1.417,0.435c-0.991-0.134-1.985-0.187-2.969-0.171
			c-0.825,0.016-1.649,0.091-2.458,0.209l-0.02-0.019c0.001,0-1.396,0.222-1.645-0.36s-0.625-1.455-0.625-1.455
			c-0.282-0.66-1.042-0.962-1.702-0.681L63,81.094c-0.659,0.28-0.961,1.041-0.681,1.701c0,0,0.377,0.855,0.625,1.438
			c0.249,0.582-0.889,1.456-0.889,1.456c-1.36,1.056-2.576,2.312-3.63,3.726h-0.019c-0.001,0-0.85,1.144-1.438,0.907
			c-0.588-0.237-1.457-0.587-1.457-0.587c-0.666-0.268-1.415,0.072-1.683,0.738l-1.702,4.234c-0.267,0.666,0.054,1.416,0.718,1.683
			c0,0,0.87,0.351,1.457,0.587c0.588,0.235,0.396,1.646,0.396,1.646c-0.222,1.765-0.196,3.518,0.057,5.236
			c0,0,0.204,1.396-0.378,1.646c-0.583,0.247-1.437,0.623-1.437,0.623c-0.66,0.282-0.962,1.043-0.681,1.703l1.777,4.197
			c0.281,0.66,1.061,0.98,1.721,0.698c0,0,0.854-0.374,1.437-0.623c0.582-0.248,1.456,0.87,1.456,0.87
			c1.058,1.364,2.308,2.592,3.725,3.648v0.02c0.03,0.021,0.065,0.035,0.094,0.056c0.219,0.172,1.021,0.869,0.813,1.381
			c-0.237,0.588-0.586,1.456-0.586,1.456c-0.267,0.665,0.054,1.414,0.718,1.683l4.255,1.701c0.667,0.268,1.415-0.053,1.683-0.718
			c0,0,0.35-0.869,0.585-1.456c0.208-0.513,1.257-0.441,1.532-0.417c1.869,0.247,3.742,0.214,5.559-0.075
			c0.407-0.032,1.251-0.039,1.437,0.397c0.249,0.583,0.605,1.456,0.605,1.456c0.281,0.66,1.061,0.963,1.721,0.681l4.197-1.796
			c0.66-0.282,0.962-1.042,0.681-1.702c0,0-0.356-0.854-0.605-1.437c-0.249-0.582,0.87-1.457,0.87-1.457
			c1.427-1.104,2.712-2.415,3.801-3.913c0.265-0.311,0.845-0.896,1.286-0.718c0.588,0.235,1.455,0.585,1.455,0.585
			c0.667,0.269,1.435-0.053,1.703-0.718l1.702-4.254c0.267-0.667-0.053-1.415-0.719-1.684c0,0-0.869-0.349-1.456-0.585
			c-0.527-0.213-0.44-1.314-0.416-1.552c0.235-1.798,0.203-3.581-0.056-5.331c-0.001,0-0.012-0.074-0.02-0.151
			c-0.003-0.019,0.003-0.038,0-0.057c-0.032-0.408-0.04-1.251,0.397-1.437c0.582-0.25,1.455-0.625,1.455-0.625
			c0.66-0.281,0.963-1.041,0.681-1.701l-1.795-4.198c-0.282-0.66-1.042-0.981-1.703-0.699c0,0-0.873,0.376-1.455,0.623
			c-0.583,0.249-1.437-0.868-1.437-0.868h-0.02c-1.06-1.367-2.304-2.611-3.724-3.669c0.001,0-1.146-0.83-0.908-1.418
			c0.236-0.588,0.586-1.475,0.586-1.475c0.268-0.667-0.053-1.416-0.719-1.683l-4.235-1.702
			C80.174,79.099,79.998,79.067,79.829,79.071z M73.816,90.831c1.325-0.024,2.683,0.212,3.99,0.737
			c5.228,2.104,7.755,8.046,5.653,13.273c-2.103,5.229-8.044,7.775-13.272,5.672c-5.229-2.103-7.756-8.044-5.654-13.272
			C66.11,93.321,69.841,90.901,73.816,90.831z M73.665,97.809c-1.634,0.166-2.912,1.555-2.912,3.233c0,1.79,1.462,3.233,3.252,3.233
			s3.234-1.443,3.234-3.233s-1.444-3.233-3.234-3.233C73.893,97.809,73.774,97.797,73.665,97.809z"/>
		<path fill="#FFFFFF" d="M114.412,91.814c-0.357,0.006-0.691,0.234-0.832,0.585c0,0-0.25,0.607-0.416,1.022
			c-0.167,0.414-1.154,0.283-1.154,0.283v0.02c-0.653-0.083-1.298-0.126-1.948-0.115c-0.578,0.012-1.154,0.07-1.72,0.151
			l-0.02-0.018c0.001,0-0.997,0.146-1.172-0.265c-0.175-0.411-0.434-1.021-0.434-1.021c-0.2-0.465-0.727-0.672-1.192-0.472
			l-2.968,1.266c-0.465,0.198-0.69,0.727-0.492,1.191c0,0,0.26,0.611,0.435,1.021s-0.605,1.021-0.605,1.021
			c-0.964,0.746-1.845,1.626-2.591,2.628c0,0.001-0.588,0.809-1.001,0.644c-0.415-0.167-1.021-0.417-1.021-0.417
			c-0.47-0.188-1.002,0.041-1.192,0.511l-1.21,2.987c-0.188,0.47,0.042,1.003,0.511,1.192c0,0,0.607,0.248,1.021,0.416
			c0.415,0.167,0.283,1.152,0.283,1.152h0.02c-0.158,1.243-0.159,2.478,0.019,3.688c0,0,0.146,0.997-0.265,1.172
			c-0.41,0.176-1.001,0.435-1.001,0.435c-0.466,0.199-0.691,0.727-0.492,1.191l1.266,2.969c0.198,0.466,0.727,0.69,1.192,0.492
			c0,0,0.609-0.259,1.021-0.436c0.308-0.131,0.734,0.277,0.926,0.492c0.781,1.029,1.713,1.956,2.78,2.741
			c0.134,0.104,0.734,0.594,0.585,0.965c-0.166,0.414-0.416,1.039-0.416,1.039c-0.188,0.469,0.042,1.003,0.511,1.19l2.987,1.192
			c0.47,0.188,1.002-0.042,1.191-0.51c0,0,0.25-0.607,0.416-1.021c0.166-0.415,1.172-0.284,1.172-0.284
			c1.292,0.163,2.582,0.144,3.837-0.058c0.288-0.021,0.872-0.022,1.002,0.284c0.175,0.41,0.436,1.021,0.436,1.021
			c0.197,0.466,0.745,0.671,1.21,0.473l2.95-1.267c0.465-0.198,0.689-0.726,0.491-1.192c0,0-0.26-0.609-0.435-1.02
			c-0.176-0.41,0.624-1.021,0.624-1.021c0.961-0.747,1.828-1.628,2.571-2.628c0.032-0.042,0.063-0.088,0.094-0.132
			c0.188-0.219,0.616-0.636,0.927-0.511c0.414,0.167,1.021,0.416,1.021,0.416c0.47,0.188,1.003-0.042,1.192-0.51l1.21-2.989
			c0.188-0.47-0.041-1.001-0.511-1.191c0,0-0.625-0.248-1.039-0.415c-0.415-0.167-0.284-1.153-0.284-1.153h-0.019
			c0.157-1.243,0.158-2.477-0.02-3.687c0,0-0.146-0.998,0.265-1.173c0.41-0.176,1.021-0.435,1.021-0.435
			c0.465-0.198,0.69-0.745,0.492-1.211l-1.266-2.949c-0.198-0.466-0.746-0.69-1.21-0.491c0,0-0.611,0.259-1.021,0.435
			c-0.411,0.176-1.022-0.624-1.022-0.624c-0.747-0.961-1.627-1.827-2.627-2.571c0,0-0.042-0.025-0.058-0.037
			c-0.024-0.019-0.05-0.039-0.075-0.058c-0.218-0.188-0.635-0.597-0.51-0.907c0.167-0.415,0.416-1.04,0.416-1.04
			c0.189-0.47-0.041-1.003-0.511-1.19l-2.987-1.192C114.653,91.843,114.53,91.813,114.412,91.814L114.412,91.814z M110.175,100.115
			c0.935-0.018,1.896,0.159,2.818,0.529c3.685,1.482,5.471,5.654,3.99,9.34c-1.482,3.686-5.674,5.473-9.359,3.989
			c-3.686-1.482-5.473-5.673-3.99-9.359C104.747,101.851,107.374,100.164,110.175,100.115z M110.309,105.031
			c-1.262,0-2.289,1.007-2.289,2.27c0,1.262,1.027,2.287,2.289,2.287c1.261,0,2.288-1.025,2.288-2.287
			C112.597,106.038,111.57,105.031,110.309,105.031z"/>
		<path fill="none" stroke="#FFFFFF" stroke-width="1.9393" d="M114.412,91.814c-0.357,0.006-0.691,0.234-0.832,0.585
			c0,0-0.25,0.607-0.416,1.022c-0.167,0.414-1.154,0.283-1.154,0.283v0.02c-0.653-0.083-1.298-0.126-1.948-0.115
			c-0.578,0.012-1.154,0.07-1.72,0.151l-0.02-0.018c0.001,0-0.997,0.146-1.172-0.265c-0.175-0.411-0.434-1.021-0.434-1.021
			c-0.2-0.465-0.727-0.672-1.192-0.472l-2.968,1.266c-0.465,0.198-0.69,0.727-0.492,1.191c0,0,0.26,0.611,0.435,1.021
			s-0.605,1.021-0.605,1.021c-0.964,0.746-1.845,1.626-2.591,2.628c0,0.001-0.588,0.809-1.001,0.644
			c-0.415-0.167-1.021-0.417-1.021-0.417c-0.47-0.188-1.002,0.041-1.192,0.511l-1.21,2.987c-0.188,0.47,0.042,1.003,0.511,1.192
			c0,0,0.607,0.248,1.021,0.416c0.415,0.167,0.283,1.152,0.283,1.152h0.02c-0.158,1.243-0.159,2.478,0.019,3.688
			c0,0,0.146,0.997-0.265,1.172c-0.41,0.176-1.001,0.435-1.001,0.435c-0.466,0.199-0.691,0.727-0.492,1.191l1.266,2.969
			c0.198,0.466,0.727,0.69,1.192,0.492c0,0,0.609-0.259,1.021-0.436c0.308-0.131,0.734,0.277,0.926,0.492
			c0.781,1.029,1.713,1.956,2.78,2.741c0.134,0.104,0.734,0.594,0.585,0.965c-0.166,0.414-0.416,1.039-0.416,1.039
			c-0.188,0.469,0.042,1.003,0.511,1.19l2.987,1.192c0.47,0.188,1.002-0.042,1.191-0.51c0,0,0.25-0.607,0.416-1.021
			c0.166-0.415,1.172-0.284,1.172-0.284c1.292,0.163,2.582,0.144,3.837-0.058c0.288-0.021,0.872-0.022,1.002,0.284
			c0.175,0.41,0.436,1.021,0.436,1.021c0.197,0.466,0.745,0.671,1.21,0.473l2.95-1.267c0.465-0.198,0.689-0.726,0.491-1.192
			c0,0-0.26-0.609-0.435-1.02c-0.176-0.41,0.624-1.021,0.624-1.021c0.961-0.747,1.828-1.628,2.571-2.628
			c0.032-0.042,0.063-0.088,0.094-0.132c0.188-0.219,0.616-0.636,0.927-0.511c0.414,0.167,1.021,0.416,1.021,0.416
			c0.47,0.188,1.003-0.042,1.192-0.51l1.21-2.989c0.188-0.47-0.041-1.001-0.511-1.191c0,0-0.625-0.248-1.039-0.415
			c-0.415-0.167-0.284-1.153-0.284-1.153h-0.019c0.157-1.243,0.158-2.477-0.02-3.687c0,0-0.146-0.998,0.265-1.173
			c0.41-0.176,1.021-0.435,1.021-0.435c0.465-0.198,0.69-0.745,0.492-1.211l-1.266-2.949c-0.198-0.466-0.746-0.69-1.21-0.491
			c0,0-0.611,0.259-1.021,0.435c-0.411,0.176-1.022-0.624-1.022-0.624c-0.747-0.961-1.627-1.827-2.627-2.571
			c0,0-0.042-0.025-0.058-0.037c-0.024-0.019-0.05-0.039-0.075-0.058c-0.218-0.188-0.635-0.597-0.51-0.907
			c0.167-0.415,0.416-1.04,0.416-1.04c0.189-0.47-0.041-1.003-0.511-1.19l-2.987-1.192C114.653,91.843,114.53,91.813,114.412,91.814
			L114.412,91.814z M110.175,100.115c0.935-0.018,1.896,0.159,2.818,0.529c3.685,1.482,5.471,5.654,3.99,9.34
			c-1.482,3.686-5.674,5.473-9.359,3.989c-3.686-1.482-5.473-5.673-3.99-9.359C104.747,101.851,107.374,100.164,110.175,100.115z
			 M110.309,105.031c-1.262,0-2.289,1.007-2.289,2.27c0,1.262,1.027,2.287,2.289,2.287c1.261,0,2.288-1.025,2.288-2.287
			C112.597,106.038,111.57,105.031,110.309,105.031z"/>
		<path fill="#FFFFFF" d="M111.519,121.442l-2.439,0.397c-0.381,0.063-0.628,0.414-0.567,0.794c0,0,0.079,0.495,0.133,0.832
			c0.055,0.336-0.643,0.644-0.643,0.644c-0.878,0.387-1.704,0.901-2.458,1.531c-0.089,0.071-0.562,0.427-0.813,0.245
			c-0.276-0.199-0.681-0.491-0.681-0.491c-0.313-0.226-0.739-0.161-0.965,0.151l-1.437,2.004c-0.225,0.314-0.162,0.739,0.151,0.965
			c0,0,0.406,0.292,0.681,0.49c0.277,0.199,0,0.909,0,0.909l0.02,0.019c-0.34,0.887-0.554,1.8-0.643,2.724h-0.02
			c0,0-0.061,0.757-0.396,0.813c-0.335,0.054-0.851,0.131-0.851,0.131c-0.38,0.063-0.629,0.434-0.567,0.814l0.397,2.42
			c0.062,0.38,0.414,0.648,0.794,0.586c0,0,0.496-0.077,0.832-0.133c0.336-0.055,0.643,0.644,0.643,0.644
			c0.375,0.842,0.876,1.634,1.475,2.363v0.019c0.001,0,0.502,0.594,0.303,0.87c-0.2,0.275-0.51,0.682-0.51,0.682
			c-0.226,0.312-0.143,0.756,0.17,0.982l1.986,1.438c0.313,0.225,0.757,0.142,0.983-0.171c0,0,0.292-0.404,0.492-0.681
			c0.199-0.276,0.907,0,0.907,0l0.019-0.02c0.887,0.341,1.8,0.555,2.723,0.644v0.019c0,0,0.758,0.08,0.813,0.416
			c0.055,0.336,0.132,0.832,0.132,0.832c0.062,0.382,0.433,0.648,0.813,0.586l2.42-0.396c0.382-0.063,0.648-0.433,0.587-0.813
			c0,0-0.098-0.495-0.151-0.832c-0.055-0.335,0.643-0.642,0.643-0.642c0.848-0.376,1.648-0.873,2.382-1.477h0.019
			c0,0.002,0.593-0.482,0.87-0.282c0.276,0.199,0.681,0.491,0.681,0.491c0.313,0.226,0.757,0.142,0.983-0.17l1.437-1.985
			c0.226-0.313,0.143-0.758-0.169-0.983c0,0-0.405-0.292-0.681-0.491c-0.276-0.199,0-0.908,0-0.908l-0.019-0.02
			c0.339-0.886,0.554-1.8,0.643-2.722h0.018c0,0,0.081-0.759,0.416-0.813c0.336-0.056,0.832-0.133,0.832-0.133
			c0.38-0.063,0.629-0.413,0.567-0.795l-0.378-2.439c-0.062-0.38-0.432-0.629-0.813-0.566c0,0-0.496,0.077-0.832,0.133
			c-0.337,0.054-0.644-0.644-0.644-0.644c-0.377-0.853-0.868-1.663-1.475-2.401c0.001,0-0.482-0.575-0.283-0.851
			c0.199-0.277,0.492-0.699,0.492-0.699c0.226-0.313,0.143-0.739-0.171-0.964l-1.985-1.438c-0.313-0.227-0.758-0.162-0.983,0.151
			c0,0-0.293,0.403-0.492,0.681c-0.199,0.275-0.907,0-0.907,0l-0.02,0.019c-0.888-0.341-1.798-0.555-2.723-0.643v-0.02
			c0.001,0-0.759-0.06-0.813-0.396c-0.054-0.337-0.132-0.832-0.132-0.832C112.25,121.648,111.899,121.381,111.519,121.442z
			 M112.35,128.173c1.076,0.021,2.16,0.362,3.101,1.041c2.459,1.772,3.019,5.2,1.248,7.657c-1.771,2.459-5.199,3.021-7.658,1.248
			c-2.458-1.771-3.019-5.198-1.248-7.657c0.997-1.384,2.525-2.165,4.103-2.27C112.05,128.183,112.197,128.171,112.35,128.173z
			 M112.313,131.937c-0.81-0.032-1.556,0.506-1.759,1.324c-0.23,0.934,0.332,1.868,1.267,2.099c0.935,0.229,1.887-0.333,2.118-1.267
			c0.231-0.935-0.333-1.888-1.266-2.117C112.555,131.945,112.428,131.94,112.313,131.937z"/>
		<path fill="none" stroke="#FFFFFF" stroke-width="1.9393" d="M111.519,121.442l-2.439,0.397c-0.381,0.063-0.628,0.414-0.567,0.794
			c0,0,0.079,0.495,0.133,0.832c0.055,0.336-0.643,0.644-0.643,0.644c-0.878,0.387-1.704,0.901-2.458,1.531
			c-0.089,0.071-0.562,0.427-0.813,0.245c-0.276-0.199-0.681-0.491-0.681-0.491c-0.313-0.226-0.739-0.161-0.965,0.151l-1.437,2.004
			c-0.225,0.314-0.162,0.739,0.151,0.965c0,0,0.406,0.292,0.681,0.49c0.277,0.199,0,0.909,0,0.909l0.02,0.019
			c-0.34,0.887-0.554,1.8-0.643,2.724h-0.02c0,0-0.061,0.757-0.396,0.813c-0.335,0.054-0.851,0.131-0.851,0.131
			c-0.38,0.063-0.629,0.434-0.567,0.814l0.397,2.42c0.062,0.38,0.414,0.648,0.794,0.586c0,0,0.496-0.077,0.832-0.133
			c0.336-0.055,0.643,0.644,0.643,0.644c0.375,0.842,0.876,1.634,1.475,2.363v0.019c0.001,0,0.502,0.594,0.303,0.87
			c-0.2,0.275-0.51,0.682-0.51,0.682c-0.226,0.312-0.143,0.756,0.17,0.982l1.986,1.438c0.313,0.225,0.757,0.142,0.983-0.171
			c0,0,0.292-0.404,0.492-0.681c0.199-0.276,0.907,0,0.907,0l0.019-0.02c0.887,0.341,1.8,0.555,2.723,0.644v0.019
			c0,0,0.758,0.08,0.813,0.416c0.055,0.336,0.132,0.832,0.132,0.832c0.062,0.382,0.433,0.648,0.813,0.586l2.42-0.396
			c0.382-0.063,0.648-0.433,0.587-0.813c0,0-0.098-0.495-0.151-0.832c-0.055-0.335,0.643-0.642,0.643-0.642
			c0.848-0.376,1.648-0.873,2.382-1.477h0.019c0,0.002,0.593-0.482,0.87-0.282c0.276,0.199,0.681,0.491,0.681,0.491
			c0.313,0.226,0.757,0.142,0.983-0.17l1.437-1.985c0.226-0.313,0.143-0.758-0.169-0.983c0,0-0.405-0.292-0.681-0.491
			c-0.276-0.199,0-0.908,0-0.908l-0.019-0.02c0.339-0.886,0.554-1.8,0.643-2.722h0.018c0,0,0.081-0.759,0.416-0.813
			c0.336-0.056,0.832-0.133,0.832-0.133c0.38-0.063,0.629-0.413,0.567-0.795l-0.378-2.439c-0.062-0.38-0.432-0.629-0.813-0.566
			c0,0-0.496,0.077-0.832,0.133c-0.337,0.054-0.644-0.644-0.644-0.644c-0.377-0.853-0.868-1.663-1.475-2.401
			c0.001,0-0.482-0.575-0.283-0.851c0.199-0.277,0.492-0.699,0.492-0.699c0.226-0.313,0.143-0.739-0.171-0.964l-1.985-1.438
			c-0.313-0.227-0.758-0.162-0.983,0.151c0,0-0.293,0.403-0.492,0.681c-0.199,0.275-0.907,0-0.907,0l-0.02,0.019
			c-0.888-0.341-1.798-0.555-2.723-0.643v-0.02c0.001,0-0.759-0.06-0.813-0.396c-0.054-0.337-0.132-0.832-0.132-0.832
			C112.25,121.648,111.899,121.381,111.519,121.442z M112.35,128.173c1.076,0.021,2.16,0.362,3.101,1.041
			c2.459,1.772,3.019,5.2,1.248,7.657c-1.771,2.459-5.199,3.021-7.658,1.248c-2.458-1.771-3.019-5.198-1.248-7.657
			c0.997-1.384,2.525-2.165,4.103-2.27C112.05,128.183,112.197,128.171,112.35,128.173z M112.313,131.937
			c-0.81-0.032-1.556,0.506-1.759,1.324c-0.23,0.934,0.332,1.868,1.267,2.099c0.935,0.229,1.887-0.333,2.118-1.267
			c0.231-0.935-0.333-1.888-1.266-2.117C112.555,131.945,112.428,131.94,112.313,131.937z"/>
		<path fill="#FFFFFF" d="M78.991,78.232c-0.507,0.009-0.972,0.314-1.172,0.813c0,0-0.369,0.868-0.605,1.455
			c-0.178,0.44-1.011,0.459-1.418,0.436c-0.99-0.135-1.983-0.188-2.968-0.171c-0.825,0.016-1.649,0.091-2.459,0.208l-0.019-0.019
			c0.001,0-1.396,0.224-1.646-0.36c-0.249-0.582-0.623-1.455-0.623-1.455c-0.282-0.66-1.042-0.962-1.702-0.681l-4.217,1.797
			c-0.66,0.281-0.961,1.042-0.681,1.7c0,0,0.377,0.855,0.624,1.438c0.249,0.582-0.888,1.456-0.888,1.456
			c-1.361,1.055-2.576,2.311-3.63,3.725h-0.02c0,0.001-0.849,1.144-1.437,0.907s-1.455-0.587-1.455-0.587
			c-0.666-0.267-1.417,0.072-1.684,0.738l-1.702,4.235c-0.267,0.666,0.053,1.416,0.719,1.683c0,0,0.869,0.35,1.456,0.586
			c0.588,0.237,0.396,1.646,0.396,1.646c-0.223,1.765-0.197,3.519,0.058,5.237c0,0,0.203,1.397-0.379,1.645
			c-0.582,0.249-1.437,0.624-1.437,0.624c-0.66,0.281-0.961,1.042-0.681,1.702l1.778,4.197c0.281,0.661,1.061,0.981,1.72,0.7
			c0,0,0.854-0.376,1.437-0.625c0.583-0.248,1.456,0.87,1.456,0.87c1.058,1.364,2.308,2.593,3.724,3.649v0.02
			c0.03,0.021,0.065,0.034,0.095,0.056c0.219,0.172,1.019,0.868,0.813,1.381c-0.236,0.587-0.586,1.455-0.586,1.455
			c-0.267,0.666,0.053,1.416,0.719,1.683l4.254,1.703c0.666,0.267,1.415-0.053,1.682-0.719c0,0,0.351-0.869,0.587-1.456
			c0.206-0.514,1.257-0.442,1.531-0.416c1.87,0.246,3.744,0.212,5.56-0.076c0.407-0.032,1.25-0.04,1.437,0.397
			c0.249,0.582,0.605,1.455,0.605,1.455c0.281,0.66,1.061,0.963,1.72,0.681l4.199-1.796c0.66-0.281,0.961-1.041,0.681-1.701
			c0,0-0.358-0.854-0.605-1.438c-0.249-0.582,0.87-1.456,0.87-1.456c1.426-1.106,2.712-2.417,3.799-3.914
			c0.266-0.31,0.846-0.896,1.286-0.719c0.588,0.236,1.457,0.587,1.457,0.587c0.666,0.268,1.434-0.053,1.702-0.72l1.702-4.254
			c0.268-0.667-0.052-1.415-0.719-1.682c0,0-0.868-0.351-1.455-0.587c-0.527-0.212-0.441-1.314-0.416-1.551
			c0.235-1.798,0.203-3.58-0.057-5.331c0,0-0.01-0.073-0.019-0.151c-0.003-0.02,0.002-0.039,0-0.058
			c-0.032-0.406-0.04-1.251,0.396-1.437c0.582-0.25,1.457-0.623,1.457-0.623c0.659-0.282,0.961-1.043,0.681-1.703l-1.797-4.197
			c-0.281-0.661-1.042-0.98-1.702-0.7c0,0-0.873,0.376-1.456,0.625c-0.582,0.248-1.437-0.87-1.437-0.87h-0.019
			c-1.061-1.366-2.304-2.61-3.725-3.668c0.001,0-1.144-0.831-0.907-1.419c0.236-0.588,0.586-1.475,0.586-1.475
			c0.268-0.665-0.053-1.415-0.718-1.682l-4.236-1.703C79.335,78.26,79.16,78.23,78.991,78.232z M72.979,89.993
			c1.324-0.023,2.682,0.211,3.988,0.737c5.228,2.103,7.755,8.045,5.654,13.273c-2.103,5.229-8.045,7.774-13.273,5.672
			c-5.228-2.103-7.756-8.045-5.652-13.272C65.272,92.482,69.002,90.063,72.979,89.993z M72.828,96.97
			c-1.635,0.167-2.913,1.556-2.913,3.233c0,1.79,1.462,3.233,3.253,3.233c1.79,0,3.232-1.443,3.232-3.233s-1.443-3.233-3.232-3.233
			C73.056,96.97,72.937,96.959,72.828,96.97z"/>
		<path fill="none" stroke="#FFFFFF" stroke-width="1.9393" d="M78.991,78.232c-0.507,0.009-0.972,0.314-1.172,0.813
			c0,0-0.369,0.868-0.605,1.455c-0.178,0.44-1.011,0.459-1.418,0.436c-0.99-0.135-1.983-0.188-2.968-0.171
			c-0.825,0.016-1.649,0.091-2.459,0.208l-0.019-0.019c0.001,0-1.396,0.224-1.646-0.36c-0.249-0.582-0.623-1.455-0.623-1.455
			c-0.282-0.66-1.042-0.962-1.702-0.681l-4.217,1.797c-0.66,0.281-0.961,1.042-0.681,1.7c0,0,0.377,0.855,0.624,1.438
			c0.249,0.582-0.888,1.456-0.888,1.456c-1.361,1.055-2.576,2.311-3.63,3.725h-0.02c0,0.001-0.849,1.144-1.437,0.907
			s-1.455-0.587-1.455-0.587c-0.666-0.267-1.417,0.072-1.684,0.738l-1.702,4.235c-0.267,0.666,0.053,1.416,0.719,1.683
			c0,0,0.869,0.35,1.456,0.586c0.588,0.237,0.396,1.646,0.396,1.646c-0.223,1.765-0.197,3.519,0.058,5.237
			c0,0,0.203,1.397-0.379,1.645c-0.582,0.249-1.437,0.624-1.437,0.624c-0.66,0.281-0.961,1.042-0.681,1.702l1.778,4.197
			c0.281,0.661,1.061,0.981,1.72,0.7c0,0,0.854-0.376,1.437-0.625c0.583-0.248,1.456,0.87,1.456,0.87
			c1.058,1.364,2.308,2.593,3.724,3.649v0.02c0.03,0.021,0.065,0.034,0.095,0.056c0.219,0.172,1.019,0.868,0.813,1.381
			c-0.236,0.587-0.586,1.455-0.586,1.455c-0.267,0.666,0.053,1.416,0.719,1.683l4.254,1.703c0.666,0.267,1.415-0.053,1.682-0.719
			c0,0,0.351-0.869,0.587-1.456c0.206-0.514,1.257-0.442,1.531-0.416c1.87,0.246,3.744,0.212,5.56-0.076
			c0.407-0.032,1.25-0.04,1.437,0.397c0.249,0.582,0.605,1.455,0.605,1.455c0.281,0.66,1.061,0.963,1.72,0.681l4.199-1.796
			c0.66-0.281,0.961-1.041,0.681-1.701c0,0-0.358-0.854-0.605-1.438c-0.249-0.582,0.87-1.456,0.87-1.456
			c1.426-1.106,2.712-2.417,3.799-3.914c0.266-0.31,0.846-0.896,1.286-0.719c0.588,0.236,1.457,0.587,1.457,0.587
			c0.666,0.268,1.434-0.053,1.702-0.72l1.702-4.254c0.268-0.667-0.052-1.415-0.719-1.682c0,0-0.868-0.351-1.455-0.587
			c-0.527-0.212-0.441-1.314-0.416-1.551c0.235-1.798,0.203-3.58-0.057-5.331c0,0-0.01-0.073-0.019-0.151
			c-0.003-0.02,0.002-0.039,0-0.058c-0.032-0.406-0.04-1.251,0.396-1.437c0.582-0.25,1.457-0.623,1.457-0.623
			c0.659-0.282,0.961-1.043,0.681-1.703l-1.797-4.197c-0.281-0.661-1.042-0.98-1.702-0.7c0,0-0.873,0.376-1.456,0.625
			c-0.582,0.248-1.437-0.87-1.437-0.87h-0.019c-1.061-1.366-2.304-2.61-3.725-3.668c0.001,0-1.144-0.831-0.907-1.419
			c0.236-0.588,0.586-1.475,0.586-1.475c0.268-0.665-0.053-1.415-0.718-1.682l-4.236-1.703C79.335,78.26,79.16,78.23,78.991,78.232z
			 M72.979,89.993c1.324-0.023,2.682,0.211,3.988,0.737c5.228,2.103,7.755,8.045,5.654,13.273
			c-2.103,5.229-8.045,7.774-13.273,5.672c-5.228-2.103-7.756-8.045-5.652-13.272C65.272,92.482,69.002,90.063,72.979,89.993z
			 M72.828,96.97c-1.635,0.167-2.913,1.556-2.913,3.233c0,1.79,1.462,3.233,3.253,3.233c1.79,0,3.232-1.443,3.232-3.233
			s-1.443-3.233-3.232-3.233C73.056,96.97,72.937,96.959,72.828,96.97z"/>
		<path fill="#FFFFFF" d="M113.573,90.977c-0.356,0.006-0.689,0.233-0.832,0.586c0,0-0.25,0.607-0.416,1.021
			c-0.166,0.415-1.153,0.284-1.153,0.284v0.019c-0.654-0.081-1.299-0.125-1.948-0.113c-0.578,0.01-1.154,0.069-1.721,0.151
			l-0.019-0.019c0,0-0.997,0.146-1.172-0.265c-0.175-0.411-0.436-1.022-0.436-1.022c-0.198-0.465-0.726-0.67-1.19-0.472
			l-2.969,1.267c-0.465,0.198-0.689,0.727-0.491,1.191c0,0,0.26,0.61,0.435,1.021c0.175,0.411-0.605,1.022-0.605,1.022
			c-0.965,0.745-1.845,1.626-2.591,2.627c0,0.001-0.587,0.81-1.002,0.643c-0.414-0.167-1.021-0.416-1.021-0.416
			c-0.469-0.188-1.002,0.042-1.19,0.511L94.042,102c-0.189,0.47,0.041,1.002,0.51,1.19c0,0,0.607,0.25,1.021,0.416
			c0.415,0.167,0.284,1.153,0.284,1.153h0.018c-0.158,1.243-0.158,2.477,0.02,3.687c0,0,0.146,0.997-0.265,1.174
			c-0.411,0.174-1.002,0.434-1.002,0.434c-0.465,0.198-0.69,0.726-0.492,1.19l1.268,2.971c0.198,0.465,0.726,0.689,1.19,0.49
			c0,0,0.611-0.259,1.021-0.435c0.308-0.132,0.735,0.276,0.927,0.492c0.78,1.028,1.712,1.957,2.779,2.74
			c0.135,0.105,0.736,0.594,0.587,0.965c-0.167,0.415-0.416,1.041-0.416,1.041c-0.189,0.468,0.041,1.001,0.511,1.19l2.987,1.191
			c0.47,0.188,1.003-0.042,1.19-0.511c0,0,0.25-0.606,0.416-1.021c0.167-0.415,1.172-0.284,1.172-0.284
			c1.293,0.163,2.583,0.145,3.838-0.056c0.287-0.022,0.871-0.024,1.003,0.283c0.175,0.411,0.434,1.021,0.434,1.021
			c0.198,0.466,0.745,0.672,1.21,0.473l2.95-1.268c0.465-0.197,0.689-0.726,0.491-1.19c0,0-0.26-0.611-0.434-1.021
			c-0.175-0.41,0.624-1.021,0.624-1.021c0.961-0.747,1.828-1.629,2.572-2.628c0.031-0.043,0.062-0.089,0.094-0.133
			c0.187-0.218,0.616-0.635,0.927-0.511c0.414,0.167,1.021,0.417,1.021,0.417c0.469,0.188,1.001-0.041,1.19-0.511l1.21-2.988
			c0.189-0.469-0.04-1.002-0.51-1.191c0,0-0.625-0.248-1.041-0.415c-0.414-0.168-0.283-1.153-0.283-1.153h-0.019
			c0.158-1.243,0.159-2.478-0.019-3.688c-0.001,0-0.146-0.997,0.265-1.172c0.41-0.176,1.021-0.436,1.021-0.436
			c0.465-0.198,0.69-0.743,0.492-1.21l-1.268-2.949c-0.198-0.467-0.745-0.69-1.21-0.492c0,0-0.609,0.26-1.021,0.436
			c-0.41,0.175-1.021-0.624-1.021-0.624c-0.747-0.962-1.628-1.828-2.628-2.571c0.001,0-0.04-0.026-0.056-0.038
			c-0.025-0.019-0.05-0.039-0.076-0.058c-0.219-0.187-0.636-0.596-0.511-0.907c0.167-0.413,0.416-1.039,0.416-1.039
			c0.189-0.47-0.041-1.003-0.51-1.191l-2.987-1.19C113.815,91.004,113.692,90.975,113.573,90.977L113.573,90.977z M109.338,99.277
			c0.934-0.018,1.896,0.158,2.817,0.529c3.685,1.482,5.472,5.654,3.989,9.34c-1.482,3.687-5.673,5.473-9.359,3.99
			c-3.685-1.483-5.471-5.674-3.988-9.359C103.908,101.012,106.535,99.326,109.338,99.277z M109.47,104.193
			c-1.262,0-2.287,1.006-2.287,2.269c0,1.262,1.025,2.287,2.287,2.287c1.263,0,2.288-1.025,2.288-2.287
			C111.758,105.199,110.732,104.193,109.47,104.193z"/>
		<path fill="none" stroke="#FFFFFF" stroke-width="1.9393" d="M113.573,90.977c-0.356,0.006-0.689,0.233-0.832,0.586
			c0,0-0.25,0.607-0.416,1.021c-0.166,0.415-1.153,0.284-1.153,0.284v0.019c-0.654-0.081-1.299-0.125-1.948-0.113
			c-0.578,0.01-1.154,0.069-1.721,0.151l-0.019-0.019c0,0-0.997,0.146-1.172-0.265c-0.175-0.411-0.436-1.022-0.436-1.022
			c-0.198-0.465-0.726-0.67-1.19-0.472l-2.969,1.267c-0.465,0.198-0.689,0.727-0.491,1.191c0,0,0.26,0.61,0.435,1.021
			c0.175,0.411-0.605,1.022-0.605,1.022c-0.965,0.745-1.845,1.626-2.591,2.627c0,0.001-0.587,0.81-1.002,0.643
			c-0.414-0.167-1.021-0.416-1.021-0.416c-0.469-0.188-1.002,0.042-1.19,0.511L94.042,102c-0.189,0.47,0.041,1.002,0.51,1.19
			c0,0,0.607,0.25,1.021,0.416c0.415,0.167,0.284,1.153,0.284,1.153h0.018c-0.158,1.243-0.158,2.477,0.02,3.687
			c0,0,0.146,0.997-0.265,1.174c-0.411,0.174-1.002,0.434-1.002,0.434c-0.465,0.198-0.69,0.726-0.492,1.19l1.268,2.971
			c0.198,0.465,0.726,0.689,1.19,0.49c0,0,0.611-0.259,1.021-0.435c0.308-0.132,0.735,0.276,0.927,0.492
			c0.78,1.028,1.712,1.957,2.779,2.74c0.135,0.105,0.736,0.594,0.587,0.965c-0.167,0.415-0.416,1.041-0.416,1.041
			c-0.189,0.468,0.041,1.001,0.511,1.19l2.987,1.191c0.47,0.188,1.003-0.042,1.19-0.511c0,0,0.25-0.606,0.416-1.021
			c0.167-0.415,1.172-0.284,1.172-0.284c1.293,0.163,2.583,0.145,3.838-0.056c0.287-0.022,0.871-0.024,1.003,0.283
			c0.175,0.411,0.434,1.021,0.434,1.021c0.198,0.466,0.745,0.672,1.21,0.473l2.95-1.268c0.465-0.197,0.689-0.726,0.491-1.19
			c0,0-0.26-0.611-0.434-1.021c-0.175-0.41,0.624-1.021,0.624-1.021c0.961-0.747,1.828-1.629,2.572-2.628
			c0.031-0.043,0.062-0.089,0.094-0.133c0.187-0.218,0.616-0.635,0.927-0.511c0.414,0.167,1.021,0.417,1.021,0.417
			c0.469,0.188,1.001-0.041,1.19-0.511l1.21-2.988c0.189-0.469-0.04-1.002-0.51-1.191c0,0-0.625-0.248-1.041-0.415
			c-0.414-0.168-0.283-1.153-0.283-1.153h-0.019c0.158-1.243,0.159-2.478-0.019-3.688c-0.001,0-0.146-0.997,0.265-1.172
			c0.41-0.176,1.021-0.436,1.021-0.436c0.465-0.198,0.69-0.743,0.492-1.21l-1.268-2.949c-0.198-0.467-0.745-0.69-1.21-0.492
			c0,0-0.609,0.26-1.021,0.436c-0.41,0.175-1.021-0.624-1.021-0.624c-0.747-0.962-1.628-1.828-2.628-2.571
			c0.001,0-0.04-0.026-0.056-0.038c-0.025-0.019-0.05-0.039-0.076-0.058c-0.219-0.187-0.636-0.596-0.511-0.907
			c0.167-0.413,0.416-1.039,0.416-1.039c0.189-0.47-0.041-1.003-0.51-1.191l-2.987-1.19
			C113.815,91.004,113.692,90.975,113.573,90.977L113.573,90.977z M109.338,99.277c0.934-0.018,1.896,0.158,2.817,0.529
			c3.685,1.482,5.472,5.654,3.989,9.34c-1.482,3.687-5.673,5.473-9.359,3.99c-3.685-1.483-5.471-5.674-3.988-9.359
			C103.908,101.012,106.535,99.326,109.338,99.277z M109.47,104.193c-1.262,0-2.287,1.006-2.287,2.269
			c0,1.262,1.025,2.287,2.287,2.287c1.263,0,2.288-1.025,2.288-2.287C111.758,105.199,110.732,104.193,109.47,104.193z"/>
		<path fill="#FFFFFF" d="M110.681,120.604l-2.439,0.398c-0.38,0.062-0.629,0.412-0.567,0.793c0,0,0.078,0.496,0.131,0.831
			c0.055,0.337-0.643,0.645-0.643,0.645c-0.876,0.387-1.703,0.9-2.458,1.53c-0.089,0.071-0.562,0.428-0.813,0.246
			c-0.276-0.2-0.681-0.491-0.681-0.491c-0.314-0.226-0.739-0.162-0.964,0.151l-1.437,2.003c-0.226,0.314-0.162,0.74,0.151,0.965
			c0,0,0.405,0.294,0.681,0.492c0.276,0.199,0,0.907,0,0.907l0.02,0.02c-0.34,0.887-0.554,1.799-0.644,2.723H101
			c0,0-0.061,0.758-0.396,0.813c-0.337,0.054-0.852,0.132-0.852,0.132c-0.381,0.062-0.629,0.432-0.567,0.813l0.396,2.42
			c0.062,0.382,0.414,0.648,0.795,0.587c0,0,0.495-0.078,0.832-0.134c0.336-0.054,0.643,0.645,0.643,0.645
			c0.374,0.842,0.875,1.634,1.475,2.362v0.02c0,0,0.5,0.593,0.302,0.87c-0.199,0.276-0.511,0.681-0.511,0.681
			c-0.226,0.313-0.142,0.757,0.17,0.983l1.985,1.438c0.314,0.226,0.758,0.142,0.983-0.17c0,0,0.293-0.405,0.492-0.681
			c0.199-0.277,0.908,0,0.908,0l0.02-0.02c0.886,0.341,1.8,0.554,2.722,0.644v0.018c0,0,0.759,0.08,0.813,0.417
			c0.054,0.336,0.132,0.832,0.132,0.832c0.062,0.381,0.432,0.648,0.813,0.586l2.42-0.397c0.38-0.063,0.647-0.431,0.585-0.813
			c0,0-0.096-0.496-0.151-0.832c-0.055-0.336,0.643-0.643,0.643-0.643c0.849-0.376,1.649-0.873,2.382-1.475h0.02
			c0,0.001,0.594-0.482,0.87-0.283c0.276,0.198,0.681,0.49,0.681,0.49c0.313,0.227,0.758,0.144,0.983-0.17l1.437-1.985
			c0.226-0.313,0.143-0.758-0.17-0.983c0,0-0.404-0.292-0.682-0.491c-0.276-0.199,0-0.907,0-0.907l-0.018-0.019
			c0.34-0.887,0.553-1.801,0.643-2.723h0.02c-0.001,0,0.079-0.759,0.416-0.813c0.335-0.056,0.832-0.133,0.832-0.133
			c0.381-0.063,0.629-0.413,0.567-0.793l-0.378-2.439c-0.062-0.382-0.433-0.63-0.813-0.567c0,0-0.495,0.078-0.832,0.132
			c-0.336,0.055-0.643-0.643-0.643-0.643c-0.377-0.853-0.869-1.664-1.475-2.402c0,0.001-0.482-0.574-0.284-0.85
			c0.199-0.276,0.492-0.699,0.492-0.699c0.227-0.314,0.143-0.739-0.169-0.965l-1.986-1.438c-0.313-0.226-0.757-0.161-0.983,0.151
			c0,0-0.292,0.405-0.492,0.681c-0.199,0.276-0.907,0-0.907,0l-0.019,0.019c-0.888-0.339-1.798-0.555-2.722-0.642v-0.02
			c0,0-0.759-0.061-0.814-0.397s-0.131-0.832-0.131-0.832C111.412,120.811,111.061,120.543,110.681,120.604z M111.513,127.336
			c1.076,0.02,2.159,0.36,3.101,1.04c2.458,1.772,3.02,5.199,1.248,7.658c-1.773,2.458-5.2,3.021-7.658,1.246
			c-2.459-1.771-3.021-5.197-1.248-7.656c0.997-1.383,2.525-2.166,4.104-2.269C111.211,127.345,111.358,127.333,111.513,127.336z
			 M111.475,131.099c-0.811-0.033-1.558,0.505-1.759,1.323c-0.23,0.936,0.333,1.868,1.268,2.1c0.934,0.23,1.886-0.332,2.118-1.268
			c0.23-0.935-0.333-1.886-1.268-2.117C111.717,131.106,111.591,131.104,111.475,131.099z"/>
		<path fill="none" stroke="#FFFFFF" stroke-width="1.9393" d="M110.681,120.604l-2.439,0.398c-0.38,0.062-0.629,0.412-0.567,0.793
			c0,0,0.078,0.496,0.131,0.831c0.055,0.337-0.643,0.645-0.643,0.645c-0.876,0.387-1.703,0.9-2.458,1.53
			c-0.089,0.071-0.562,0.428-0.813,0.246c-0.276-0.2-0.681-0.491-0.681-0.491c-0.314-0.226-0.739-0.162-0.964,0.151l-1.437,2.003
			c-0.226,0.314-0.162,0.74,0.151,0.965c0,0,0.405,0.294,0.681,0.492c0.276,0.199,0,0.907,0,0.907l0.02,0.02
			c-0.34,0.887-0.554,1.799-0.644,2.723H101c0,0-0.061,0.758-0.396,0.813c-0.337,0.054-0.852,0.132-0.852,0.132
			c-0.381,0.062-0.629,0.432-0.567,0.813l0.396,2.42c0.062,0.382,0.414,0.648,0.795,0.587c0,0,0.495-0.078,0.832-0.134
			c0.336-0.054,0.643,0.645,0.643,0.645c0.374,0.842,0.875,1.634,1.475,2.362v0.02c0,0,0.5,0.593,0.302,0.87
			c-0.199,0.276-0.511,0.681-0.511,0.681c-0.226,0.313-0.142,0.757,0.17,0.983l1.985,1.438c0.314,0.226,0.758,0.142,0.983-0.17
			c0,0,0.293-0.405,0.492-0.681c0.199-0.277,0.908,0,0.908,0l0.02-0.02c0.886,0.341,1.8,0.554,2.722,0.644v0.018
			c0,0,0.759,0.08,0.813,0.417c0.054,0.336,0.132,0.832,0.132,0.832c0.062,0.381,0.432,0.648,0.813,0.586l2.42-0.397
			c0.38-0.063,0.647-0.431,0.585-0.813c0,0-0.096-0.496-0.151-0.832c-0.055-0.336,0.643-0.643,0.643-0.643
			c0.849-0.376,1.649-0.873,2.382-1.475h0.02c0,0.001,0.594-0.482,0.87-0.283c0.276,0.198,0.681,0.49,0.681,0.49
			c0.313,0.227,0.758,0.144,0.983-0.17l1.437-1.985c0.226-0.313,0.143-0.758-0.17-0.983c0,0-0.404-0.292-0.682-0.491
			c-0.276-0.199,0-0.907,0-0.907l-0.018-0.019c0.34-0.887,0.553-1.801,0.643-2.723h0.02c-0.001,0,0.079-0.759,0.416-0.813
			c0.335-0.056,0.832-0.133,0.832-0.133c0.381-0.063,0.629-0.413,0.567-0.793l-0.378-2.439c-0.062-0.382-0.433-0.63-0.813-0.567
			c0,0-0.495,0.078-0.832,0.132c-0.336,0.055-0.643-0.643-0.643-0.643c-0.377-0.853-0.869-1.664-1.475-2.402
			c0,0.001-0.482-0.574-0.284-0.85c0.199-0.276,0.492-0.699,0.492-0.699c0.227-0.314,0.143-0.739-0.169-0.965l-1.986-1.438
			c-0.313-0.226-0.757-0.161-0.983,0.151c0,0-0.292,0.405-0.492,0.681c-0.199,0.276-0.907,0-0.907,0l-0.019,0.019
			c-0.888-0.339-1.798-0.555-2.722-0.642v-0.02c0,0-0.759-0.061-0.814-0.397s-0.131-0.832-0.131-0.832
			C111.412,120.811,111.061,120.543,110.681,120.604z M111.513,127.336c1.076,0.02,2.159,0.36,3.101,1.04
			c2.458,1.772,3.02,5.199,1.248,7.658c-1.773,2.458-5.2,3.021-7.658,1.246c-2.459-1.771-3.021-5.197-1.248-7.656
			c0.997-1.383,2.525-2.166,4.104-2.269C111.211,127.345,111.358,127.333,111.513,127.336z M111.475,131.099
			c-0.811-0.033-1.558,0.505-1.759,1.323c-0.23,0.936,0.333,1.868,1.268,2.1c0.934,0.23,1.886-0.332,2.118-1.268
			c0.23-0.935-0.333-1.886-1.268-2.117C111.717,131.106,111.591,131.104,111.475,131.099z"/>
	</g>
	<g>
		<g>
			<g id="g8168-8_9_" transform="matrix(0.51565613,0,0,0.51565613,372.20455,684.16421)">
				<g id="g6474-4-1_9_" transform="translate(-94.157356,438.34822)">
					<g id="g3279-1-7-8_9_" transform="translate(-90.046578,50.516939)">
						<g id="g3281-7-8-9_9_">
							<g id="path3283-4-6_10_">
								<path fill="#FFFFFF" d="M-384.732-1664.247c-0.983,0.017-1.884,0.608-2.274,1.577c0,0-0.716,1.684-1.174,2.824
									c-0.344,0.854-1.959,0.89-2.748,0.843c-1.922-0.259-3.849-0.362-5.758-0.331c-1.598,0.029-3.198,0.176-4.766,0.404
									l-0.038-0.036c0.002,0-2.707,0.43-3.189-0.699c-0.482-1.129-1.211-2.822-1.211-2.822c-0.545-1.28-2.02-1.865-3.3-1.32
									l-8.177,3.483c-1.277,0.544-1.865,2.02-1.32,3.299c0,0,0.732,1.659,1.211,2.788c0.483,1.13-1.724,2.825-1.724,2.825
									c-2.637,2.047-4.995,4.483-7.039,7.225h-0.036c-0.002,0-1.649,2.218-2.786,1.758c-1.14-0.459-2.825-1.137-2.825-1.137
									c-1.292-0.519-2.744,0.14-3.264,1.432l-3.3,8.212c-0.518,1.293,0.104,2.746,1.393,3.263c0,0,1.686,0.68,2.825,1.138
									c1.14,0.456,0.769,3.191,0.769,3.191c-0.431,3.422-0.38,6.822,0.112,10.155c0,0,0.396,2.708-0.733,3.191
									c-1.133,0.479-2.788,1.208-2.788,1.208c-1.28,0.547-1.865,2.023-1.32,3.303l3.447,8.14c0.544,1.28,2.058,1.901,3.339,1.354
									c0,0,1.655-0.724,2.786-1.207c1.129-0.481,2.823,1.686,2.823,1.686c2.051,2.647,4.475,5.026,7.224,7.075v0.038
									c0.058,0.042,0.127,0.068,0.182,0.108c0.424,0.333,1.978,1.686,1.578,2.678c-0.459,1.14-1.137,2.824-1.137,2.824
									c-0.518,1.291,0.104,2.742,1.393,3.263l8.251,3.299c1.292,0.519,2.744-0.102,3.264-1.392c0,0,0.678-1.685,1.134-2.824
									c0.402-0.994,2.437-0.856,2.971-0.809c3.624,0.479,7.257,0.415,10.78-0.147c0.79-0.063,2.426-0.076,2.786,0.772
									c0.484,1.131,1.173,2.824,1.173,2.824c0.544,1.28,2.059,1.867,3.338,1.32l8.141-3.483c1.28-0.547,1.866-2.022,1.32-3.301
									c0,0-0.691-1.655-1.173-2.787c-0.482-1.129,1.686-2.826,1.686-2.826c2.767-2.142,5.26-4.683,7.371-7.59
									c0.513-0.602,1.638-1.737,2.493-1.392c1.14,0.456,2.822,1.134,2.822,1.134c1.293,0.521,2.783-0.102,3.303-1.392l3.3-8.25
									c0.517-1.293-0.102-2.743-1.394-3.265c0,0-1.685-0.676-2.825-1.133c-1.023-0.413-0.853-2.549-0.807-3.009
									c0.455-3.488,0.393-6.945-0.109-10.338c-0.003,0-0.023-0.144-0.038-0.294c-0.007-0.036,0.007-0.074,0-0.11
									c-0.063-0.792-0.078-2.426,0.771-2.786c1.13-0.486,2.823-1.212,2.823-1.212c1.279-0.545,1.866-2.02,1.32-3.299l-3.483-8.142
									c-0.545-1.279-2.022-1.902-3.302-1.356c0,0-1.693,0.729-2.822,1.208c-1.132,0.483-2.787-1.684-2.787-1.684h-0.038
									c-2.057-2.651-4.469-5.064-7.222-7.115c0.002,0-2.22-1.611-1.76-2.75c0.458-1.14,1.136-2.861,1.136-2.861
									c0.52-1.293-0.102-2.746-1.394-3.263l-8.214-3.301C-384.064-1664.194-384.405-1664.255-384.732-1664.247z
									 M-396.393-1641.442c2.569-0.047,5.201,0.411,7.736,1.43c10.139,4.079,15.041,15.603,10.962,25.741
									c-4.078,10.14-15.599,15.079-25.739,10.999c-10.141-4.077-15.042-15.599-10.964-25.739
									C-411.337-1636.614-404.103-1641.306-396.393-1641.442z M-396.686-1627.911c-3.167,0.322-5.646,3.015-5.646,6.271
									c0,3.47,2.836,6.271,6.305,6.271c3.471,0,6.271-2.799,6.271-6.271c0-3.472-2.8-6.271-6.271-6.271
									C-396.244-1627.911-396.475-1627.933-396.686-1627.911z"/>
								<g opacity="0">
									<path fill="none" stroke="#FFFFFF" stroke-width="1.9393" d="M-384.732-1664.247c-0.983,0.017-1.884,0.608-2.274,1.577
										c0,0-0.716,1.684-1.174,2.824c-0.344,0.854-1.959,0.89-2.748,0.843c-1.922-0.259-3.849-0.362-5.758-0.331
										c-1.598,0.029-3.198,0.176-4.766,0.404l-0.038-0.036c0.002,0-2.707,0.43-3.189-0.699c-0.482-1.129-1.211-2.822-1.211-2.822
										c-0.545-1.28-2.02-1.865-3.3-1.32l-8.177,3.483c-1.277,0.544-1.865,2.02-1.32,3.299c0,0,0.732,1.659,1.211,2.788
										c0.483,1.13-1.724,2.825-1.724,2.825c-2.637,2.047-4.995,4.483-7.039,7.225h-0.036c-0.002,0-1.649,2.218-2.786,1.758
										c-1.14-0.459-2.825-1.137-2.825-1.137c-1.292-0.519-2.744,0.14-3.264,1.432l-3.3,8.212
										c-0.518,1.293,0.104,2.746,1.393,3.263c0,0,1.686,0.68,2.825,1.138c1.14,0.456,0.769,3.191,0.769,3.191
										c-0.431,3.422-0.38,6.822,0.112,10.155c0,0,0.396,2.708-0.733,3.191c-1.133,0.479-2.788,1.208-2.788,1.208
										c-1.28,0.547-1.865,2.023-1.32,3.303l3.447,8.14c0.544,1.28,2.058,1.901,3.339,1.354c0,0,1.655-0.724,2.786-1.207
										c1.129-0.481,2.823,1.686,2.823,1.686c2.051,2.647,4.475,5.026,7.224,7.075v0.038c0.058,0.042,0.127,0.068,0.182,0.108
										c0.424,0.333,1.978,1.686,1.578,2.678c-0.459,1.14-1.137,2.824-1.137,2.824c-0.518,1.291,0.104,2.742,1.393,3.263
										l8.251,3.299c1.292,0.519,2.744-0.102,3.264-1.392c0,0,0.678-1.685,1.134-2.824c0.402-0.994,2.437-0.856,2.971-0.809
										c3.624,0.479,7.257,0.415,10.78-0.147c0.79-0.063,2.426-0.076,2.786,0.772c0.484,1.131,1.173,2.824,1.173,2.824
										c0.544,1.28,2.059,1.867,3.338,1.32l8.141-3.483c1.28-0.547,1.866-2.022,1.32-3.301c0,0-0.691-1.655-1.173-2.787
										c-0.482-1.129,1.686-2.826,1.686-2.826c2.767-2.142,5.26-4.683,7.371-7.59c0.513-0.602,1.638-1.737,2.493-1.392
										c1.14,0.456,2.822,1.134,2.822,1.134c1.293,0.521,2.783-0.102,3.303-1.392l3.3-8.25c0.517-1.293-0.102-2.743-1.394-3.265
										c0,0-1.685-0.676-2.825-1.133c-1.023-0.413-0.853-2.549-0.807-3.009c0.455-3.488,0.393-6.945-0.109-10.338
										c-0.003,0-0.023-0.144-0.038-0.294c-0.007-0.036,0.007-0.074,0-0.11c-0.063-0.792-0.078-2.426,0.771-2.786
										c1.13-0.486,2.823-1.212,2.823-1.212c1.279-0.545,1.866-2.02,1.32-3.299l-3.483-8.142
										c-0.545-1.279-2.022-1.902-3.302-1.356c0,0-1.693,0.729-2.822,1.208c-1.132,0.483-2.787-1.684-2.787-1.684h-0.038
										c-2.057-2.651-4.469-5.064-7.222-7.115c0.002,0-2.22-1.611-1.76-2.75c0.458-1.14,1.136-2.861,1.136-2.861
										c0.52-1.293-0.102-2.746-1.394-3.263l-8.214-3.301C-384.064-1664.194-384.405-1664.255-384.732-1664.247z
										 M-396.393-1641.442c2.569-0.047,5.201,0.411,7.736,1.43c10.139,4.079,15.041,15.603,10.962,25.741
										c-4.078,10.14-15.599,15.079-25.739,10.999c-10.141-4.077-15.042-15.599-10.964-25.739
										C-411.337-1636.614-404.103-1641.306-396.393-1641.442z M-396.686-1627.911c-3.167,0.322-5.646,3.015-5.646,6.271
										c0,3.47,2.836,6.271,6.305,6.271c3.471,0,6.271-2.799,6.271-6.271c0-3.472-2.8-6.271-6.271-6.271
										C-396.244-1627.911-396.475-1627.933-396.686-1627.911z"/>
								</g>
							</g>
						</g>
					</g>
				</g>
				<g id="g3281-1-4-1_9_" transform="matrix(0.70498521,0,0,0.70498521,-27.151326,540.86116)">
					<g id="path3283-1-8_10_">
						<path fill="#FFFFFF" d="M-673.376-2399.387c-0.983,0.016-1.901,0.645-2.289,1.609c0,0-0.686,1.671-1.143,2.813
							c-0.462,1.139-3.175,0.779-3.175,0.779v0.054c-1.796-0.227-3.57-0.345-5.358-0.317c-1.589,0.032-3.174,0.193-4.732,0.417
							l-0.054-0.048c0.003,0-2.743,0.403-3.225-0.728c-0.482-1.131-1.194-2.81-1.194-2.81c-0.548-1.279-1.999-1.848-3.279-1.296
							l-8.164,3.48c-1.28,0.545-1.898,1.999-1.353,3.277c0,0,0.716,1.682,1.194,2.81c0.482,1.128-1.664,2.807-1.664,2.807
							c-2.65,2.051-5.074,4.473-7.127,7.229c0,0.003-1.617,2.223-2.755,1.769c-1.142-0.458-2.809-1.147-2.809-1.147
							c-1.292-0.516-2.759,0.114-3.279,1.406l-3.328,8.218c-0.517,1.292,0.114,2.759,1.406,3.28c0,0,1.671,0.682,2.809,1.146
							c1.14,0.458,0.778,3.17,0.778,3.17h0.054c-0.435,3.42-0.438,6.814,0.051,10.144c0,0,0.4,2.743-0.728,3.224
							c-1.127,0.484-2.755,1.196-2.755,1.196c-1.283,0.548-1.901,1.999-1.353,3.277l3.483,8.167
							c0.545,1.281,1.999,1.899,3.279,1.354c0,0,1.676-0.712,2.81-1.198c0.847-0.36,2.02,0.763,2.547,1.354
							c2.149,2.832,4.712,5.382,7.646,7.542c0.368,0.286,2.02,1.633,1.611,2.654c-0.457,1.139-1.145,2.857-1.145,2.857
							c-0.517,1.291,0.114,2.76,1.406,3.276l8.217,3.28c1.292,0.519,2.758-0.115,3.277-1.402c0,0,0.688-1.671,1.145-2.81
							c0.457-1.143,3.225-0.783,3.225-0.783c3.554,0.45,7.1,0.396,10.556-0.157c0.791-0.059,2.399-0.062,2.758,0.782
							c0.482,1.128,1.198,2.81,1.198,2.81c0.542,1.281,2.048,1.846,3.328,1.3l8.114-3.483c1.279-0.545,1.896-1.997,1.35-3.28
							c0,0-0.715-1.676-1.197-2.806c-0.484-1.128,1.718-2.81,1.718-2.81c2.645-2.055,5.026-4.478,7.073-7.229
							c0.089-0.116,0.175-0.242,0.258-0.363c0.517-0.603,1.695-1.75,2.549-1.406c1.139,0.459,2.81,1.146,2.81,1.146
							c1.291,0.518,2.759-0.115,3.279-1.402l3.327-8.223c0.517-1.292-0.113-2.752-1.405-3.277c0,0-1.722-0.681-2.858-1.142
							c-1.142-0.459-0.782-3.174-0.782-3.174h-0.051c0.431-3.42,0.435-6.813-0.054-10.141c0,0-0.4-2.745,0.728-3.226
							c1.128-0.484,2.807-1.196,2.807-1.196c1.28-0.545,1.898-2.05,1.354-3.331l-3.484-8.113c-0.545-1.281-2.051-1.899-3.327-1.351
							c0,0-1.68,0.712-2.81,1.195c-1.131,0.484-2.811-1.717-2.811-1.717c-2.055-2.643-4.477-5.026-7.228-7.073
							c0,0-0.114-0.07-0.157-0.102c-0.067-0.051-0.138-0.106-0.208-0.157c-0.599-0.517-1.745-1.641-1.404-2.497
							c0.458-1.142,1.144-2.861,1.144-2.861c0.52-1.292-0.113-2.759-1.405-3.275l-8.218-3.28
							C-672.711-2399.309-673.051-2399.388-673.376-2399.387L-673.376-2399.387z M-685.029-2376.553
							c2.572-0.05,5.217,0.438,7.751,1.456c10.137,4.078,15.05,15.554,10.975,25.692c-4.078,10.138-15.609,15.054-25.746,10.974
							c-10.141-4.078-15.054-15.605-10.975-25.746C-699.964-2371.78-692.735-2376.417-685.029-2376.553z M-684.663-2363.03
							c-3.472,0-6.295,2.77-6.295,6.243c0,3.471,2.825,6.292,6.295,6.292c3.468,0,6.294-2.821,6.294-6.292
							C-678.369-2360.26-681.193-2363.03-684.663-2363.03z"/>
						<g opacity="0">
							<path fill="none" stroke="#FFFFFF" stroke-width="1.9393" d="M-673.376-2399.387c-0.983,0.016-1.901,0.645-2.289,1.609
								c0,0-0.686,1.671-1.143,2.813c-0.462,1.139-3.175,0.779-3.175,0.779v0.054c-1.796-0.227-3.57-0.345-5.358-0.317
								c-1.589,0.032-3.174,0.193-4.732,0.417l-0.054-0.048c0.003,0-2.743,0.403-3.225-0.728c-0.482-1.131-1.194-2.81-1.194-2.81
								c-0.548-1.279-1.999-1.848-3.279-1.296l-8.164,3.48c-1.28,0.545-1.898,1.999-1.353,3.277c0,0,0.716,1.682,1.194,2.81
								c0.482,1.128-1.664,2.807-1.664,2.807c-2.65,2.051-5.074,4.473-7.127,7.229c0,0.003-1.617,2.223-2.755,1.769
								c-1.142-0.458-2.809-1.147-2.809-1.147c-1.292-0.516-2.759,0.114-3.279,1.406l-3.328,8.218
								c-0.517,1.292,0.114,2.759,1.406,3.28c0,0,1.671,0.682,2.809,1.146c1.14,0.458,0.778,3.17,0.778,3.17h0.054
								c-0.435,3.42-0.438,6.814,0.051,10.144c0,0,0.4,2.743-0.728,3.224c-1.127,0.484-2.755,1.196-2.755,1.196
								c-1.283,0.548-1.901,1.999-1.353,3.277l3.483,8.167c0.545,1.281,1.999,1.899,3.279,1.354c0,0,1.676-0.712,2.81-1.198
								c0.847-0.36,2.02,0.763,2.547,1.354c2.149,2.832,4.712,5.382,7.646,7.542c0.368,0.286,2.02,1.633,1.611,2.654
								c-0.457,1.139-1.145,2.857-1.145,2.857c-0.517,1.291,0.114,2.76,1.406,3.276l8.217,3.28c1.292,0.519,2.758-0.115,3.277-1.402
								c0,0,0.688-1.671,1.145-2.81c0.457-1.143,3.225-0.783,3.225-0.783c3.554,0.45,7.1,0.396,10.556-0.157
								c0.791-0.059,2.399-0.062,2.758,0.782c0.482,1.128,1.198,2.81,1.198,2.81c0.542,1.281,2.048,1.846,3.328,1.3l8.114-3.483
								c1.279-0.545,1.896-1.997,1.35-3.28c0,0-0.715-1.676-1.197-2.806c-0.484-1.128,1.718-2.81,1.718-2.81
								c2.645-2.055,5.026-4.478,7.073-7.229c0.089-0.116,0.175-0.242,0.258-0.363c0.517-0.603,1.695-1.75,2.549-1.406
								c1.139,0.459,2.81,1.146,2.81,1.146c1.291,0.518,2.759-0.115,3.279-1.402l3.327-8.223c0.517-1.292-0.113-2.752-1.405-3.277
								c0,0-1.722-0.681-2.858-1.142c-1.142-0.459-0.782-3.174-0.782-3.174h-0.051c0.431-3.42,0.435-6.813-0.054-10.141
								c0,0-0.4-2.745,0.728-3.226c1.128-0.484,2.807-1.196,2.807-1.196c1.28-0.545,1.898-2.05,1.354-3.331l-3.484-8.113
								c-0.545-1.281-2.051-1.899-3.327-1.351c0,0-1.68,0.712-2.81,1.195c-1.131,0.484-2.811-1.717-2.811-1.717
								c-2.055-2.643-4.477-5.026-7.228-7.073c0,0-0.114-0.07-0.157-0.102c-0.067-0.051-0.138-0.106-0.208-0.157
								c-0.599-0.517-1.745-1.641-1.404-2.497c0.458-1.142,1.144-2.861,1.144-2.861c0.52-1.292-0.113-2.759-1.405-3.275l-8.218-3.28
								C-672.711-2399.309-673.051-2399.388-673.376-2399.387L-673.376-2399.387z M-685.029-2376.553
								c2.572-0.05,5.217,0.438,7.751,1.456c10.137,4.078,15.05,15.554,10.975,25.692c-4.078,10.138-15.609,15.054-25.746,10.974
								c-10.141-4.078-15.054-15.605-10.975-25.746C-699.964-2371.78-692.735-2376.417-685.029-2376.553z M-684.663-2363.03
								c-3.472,0-6.295,2.77-6.295,6.243c0,3.471,2.825,6.292,6.295,6.292c3.468,0,6.294-2.821,6.294-6.292
								C-678.369-2360.26-681.193-2363.03-684.663-2363.03z"/>
						</g>
					</g>
				</g>
				<g id="g3279-9-5-4_9_" transform="matrix(0.52211836,0.12894298,-0.12894298,0.52211836,54.420624,567.8239)">
					<g id="g3281-3-9-5_9_">
						<g id="path3283-6-3_10_">
							<path fill="#FFFFFF" d="M-1754.842-2747.967l-8.197,3.499c-1.279,0.548-1.84,1.992-1.299,3.272c0,0,0.705,1.665,1.184,2.796
								c0.484,1.128-1.692,2.81-1.692,2.81c-2.739,2.113-5.187,4.629-7.281,7.486c-0.251,0.327-1.597,1.978-2.636,1.561
								c-1.141-0.458-2.807-1.131-2.807-1.131c-1.291-0.519-2.728,0.075-3.247,1.364l-3.298,8.258
								c-0.514,1.295,0.074,2.729,1.365,3.249c0,0,1.672,0.67,2.807,1.128c1.143,0.458,0.786,3.183,0.786,3.183l0.084,0.048
								c-0.425,3.398-0.383,6.779,0.104,10.091l-0.068,0.017c0,0,0.442,2.702-0.686,3.187c-1.128,0.478-2.866,1.194-2.866,1.194
								c-1.277,0.549-1.828,2.062-1.282,3.342l3.484,8.128c0.547,1.276,2.01,1.914,3.288,1.366c0,0,1.67-0.699,2.796-1.184
								c1.129-0.482,2.809,1.697,2.809,1.697c2.039,2.623,4.481,4.962,7.204,6.999l0.016,0.065c0.005-0.001,2.272,1.644,1.812,2.783
								c-0.461,1.137-1.197,2.827-1.197,2.827c-0.52,1.286,0.155,2.769,1.444,3.292l8.196,3.315
								c1.287,0.516,2.774-0.159,3.292-1.448c0,0,0.675-1.668,1.135-2.808c0.457-1.139,3.176-0.784,3.176-0.784l0.046-0.084
								c3.401,0.426,6.782,0.385,10.089-0.101l0.016,0.065c0,0,2.724-0.375,3.206,0.753c0.485,1.128,1.182,2.798,1.182,2.798
								c0.545,1.283,2.075,1.896,3.353,1.348l8.129-3.48c1.284-0.549,1.896-2.075,1.351-3.355c0,0-0.77-1.649-1.249-2.782
								c-0.483-1.125,1.697-2.802,1.697-2.802c2.642-2.049,5.012-4.481,7.062-7.228l0.065-0.016c0.002,0.007,1.66-2.202,2.8-1.74
								c1.138,0.459,2.808,1.131,2.808,1.131c1.294,0.517,2.774-0.159,3.293-1.446l3.314-8.193c0.519-1.289-0.154-2.777-1.443-3.296
								c0,0-1.669-0.672-2.808-1.131c-1.14-0.458-0.785-3.179-0.785-3.179l-0.081-0.051c0.42-3.394,0.382-6.781-0.104-10.085
								l0.063-0.016c0,0-0.374-2.726,0.756-3.204c1.128-0.485,2.798-1.184,2.798-1.184c1.278-0.548,1.843-1.99,1.297-3.273
								l-3.434-8.213c-0.543-1.275-2.055-1.829-3.333-1.279c0,0-1.67,0.699-2.796,1.184c-1.133,0.479-2.811-1.696-2.811-1.696
								c-2.057-2.659-4.473-5.072-7.238-7.132c0.003-0.002-2.185-1.599-1.727-2.734c0.46-1.142,1.119-2.874,1.119-2.874
								c0.519-1.291-0.138-2.711-1.434-3.226l-8.191-3.316c-1.29-0.523-2.795,0.088-3.31,1.38c0,0-0.679,1.666-1.133,2.808
								c-0.459,1.136-3.176,0.784-3.176,0.784l-0.052,0.082c-3.404-0.425-6.772-0.388-10.087,0.104l-0.017-0.068
								c0.003-0.001-2.707,0.449-3.19-0.685c-0.479-1.133-1.181-2.799-1.181-2.799
								C-1752.103-2747.881-1753.564-2748.511-1754.842-2747.967z M-1746.113-2725.126c3.786-0.855,7.875-0.599,11.756,0.963
								c10.141,4.079,15.065,15.594,10.988,25.728c-4.075,10.14-15.588,15.069-25.728,10.991
								c-10.136-4.076-15.063-15.589-10.99-25.729c2.292-5.706,6.969-9.761,12.403-11.493
								C-1747.154-2724.831-1746.651-2724.999-1746.113-2725.126z M-1742.99-2711.917c-2.864,0.588-5.01,3.116-5.012,6.156
								c0,3.468,2.777,6.253,6.25,6.25c3.472-0.003,6.319-2.796,6.319-6.265c0.002-3.472-2.796-6.321-6.263-6.317
								C-1742.133-2712.095-1742.582-2712.005-1742.99-2711.917z"/>
							<g opacity="0">
								<path fill="none" stroke="#FFFFFF" stroke-width="1.9393" d="M-1754.842-2747.967l-8.197,3.499
									c-1.279,0.548-1.84,1.992-1.299,3.272c0,0,0.705,1.665,1.184,2.796c0.484,1.128-1.692,2.81-1.692,2.81
									c-2.739,2.113-5.187,4.629-7.281,7.486c-0.251,0.327-1.597,1.978-2.636,1.561c-1.141-0.458-2.807-1.131-2.807-1.131
									c-1.291-0.519-2.728,0.075-3.247,1.364l-3.298,8.258c-0.514,1.295,0.074,2.729,1.365,3.249c0,0,1.672,0.67,2.807,1.128
									c1.143,0.458,0.786,3.183,0.786,3.183l0.084,0.048c-0.425,3.398-0.383,6.779,0.104,10.091l-0.068,0.017
									c0,0,0.442,2.702-0.686,3.187c-1.128,0.478-2.866,1.194-2.866,1.194c-1.277,0.549-1.828,2.062-1.282,3.342l3.484,8.128
									c0.547,1.276,2.01,1.914,3.288,1.366c0,0,1.67-0.699,2.796-1.184c1.129-0.482,2.809,1.697,2.809,1.697
									c2.039,2.623,4.481,4.962,7.204,6.999l0.016,0.065c0.005-0.001,2.272,1.644,1.812,2.783
									c-0.461,1.137-1.197,2.827-1.197,2.827c-0.52,1.286,0.155,2.769,1.444,3.292l8.196,3.315
									c1.287,0.516,2.774-0.159,3.292-1.448c0,0,0.675-1.668,1.135-2.808c0.457-1.139,3.176-0.784,3.176-0.784l0.046-0.084
									c3.401,0.426,6.782,0.385,10.089-0.101l0.016,0.065c0,0,2.724-0.375,3.206,0.753c0.485,1.128,1.182,2.798,1.182,2.798
									c0.545,1.283,2.075,1.896,3.353,1.348l8.129-3.48c1.284-0.549,1.896-2.075,1.351-3.355c0,0-0.77-1.649-1.249-2.782
									c-0.483-1.125,1.697-2.802,1.697-2.802c2.642-2.049,5.012-4.481,7.062-7.228l0.065-0.016c0.002,0.007,1.66-2.202,2.8-1.74
									c1.138,0.459,2.808,1.131,2.808,1.131c1.294,0.517,2.774-0.159,3.293-1.446l3.314-8.193
									c0.519-1.289-0.154-2.777-1.443-3.296c0,0-1.669-0.672-2.808-1.131c-1.14-0.458-0.785-3.179-0.785-3.179l-0.081-0.051
									c0.42-3.394,0.382-6.781-0.104-10.085l0.063-0.016c0,0-0.374-2.726,0.756-3.204c1.128-0.485,2.798-1.184,2.798-1.184
									c1.278-0.548,1.843-1.99,1.297-3.273l-3.434-8.213c-0.543-1.275-2.055-1.829-3.333-1.279c0,0-1.67,0.699-2.796,1.184
									c-1.133,0.479-2.811-1.696-2.811-1.696c-2.057-2.659-4.473-5.072-7.238-7.132c0.003-0.002-2.185-1.599-1.727-2.734
									c0.46-1.142,1.119-2.874,1.119-2.874c0.519-1.291-0.138-2.711-1.434-3.226l-8.191-3.316c-1.29-0.523-2.795,0.088-3.31,1.38
									c0,0-0.679,1.666-1.133,2.808c-0.459,1.136-3.176,0.784-3.176,0.784l-0.052,0.082c-3.404-0.425-6.772-0.388-10.087,0.104
									l-0.017-0.068c0.003-0.001-2.707,0.449-3.19-0.685c-0.479-1.133-1.181-2.799-1.181-2.799
									C-1752.103-2747.881-1753.564-2748.511-1754.842-2747.967z M-1746.113-2725.126c3.786-0.855,7.875-0.599,11.756,0.963
									c10.141,4.079,15.065,15.594,10.988,25.728c-4.075,10.14-15.588,15.069-25.728,10.991
									c-10.136-4.076-15.063-15.589-10.99-25.729c2.292-5.706,6.969-9.761,12.403-11.493
									C-1747.154-2724.831-1746.651-2724.999-1746.113-2725.126z M-1742.99-2711.917c-2.864,0.588-5.01,3.116-5.012,6.156
									c0,3.468,2.777,6.253,6.25,6.25c3.472-0.003,6.319-2.796,6.319-6.265c0.002-3.472-2.796-6.321-6.263-6.317
									C-1742.133-2712.095-1742.582-2712.005-1742.99-2711.917z"/>
							</g>
						</g>
					</g>
				</g>
			</g>
			<g id="g8168_9_" transform="matrix(0.51565613,0,0,0.51565613,371.49026,683.44992)">
				<g id="g6474-4_9_" transform="translate(-94.157356,438.34822)">
					<g id="g3279-1-7_9_" transform="translate(-90.046578,50.516939)">
						<g id="g3281-7-8_9_">
							<g id="path3283-4_10_">
								<path fill="#502D16" d="M-384.972-1664.489c-0.983,0.017-1.884,0.61-2.274,1.578c0,0-0.717,1.684-1.173,2.822
									c-0.345,0.854-1.96,0.89-2.752,0.846c-1.919-0.261-3.845-0.365-5.754-0.331c-1.6,0.03-3.198,0.176-4.77,0.403l-0.036-0.036
									c0.004,0-2.707,0.434-3.19-0.7c-0.482-1.129-1.208-2.822-1.208-2.822c-0.547-1.28-2.02-1.864-3.3-1.32l-8.178,3.486
									c-1.279,0.544-1.864,2.021-1.32,3.296c0,0,0.731,1.659,1.209,2.791c0.482,1.129-1.721,2.824-1.721,2.824
									c-2.64,2.045-4.995,4.481-7.039,7.223h-0.038c0,0.002-1.648,2.219-2.787,1.759c-1.14-0.458-2.823-1.138-2.823-1.138
									c-1.292-0.517-2.747,0.14-3.265,1.432l-3.3,8.214c-0.517,1.292,0.102,2.746,1.395,3.263c0,0,1.685,0.678,2.824,1.136
									c1.14,0.459,0.769,3.19,0.769,3.19c-0.433,3.422-0.382,6.823,0.112,10.158c0,0,0.393,2.71-0.736,3.189
									c-1.129,0.483-2.787,1.209-2.787,1.209c-1.279,0.546-1.864,2.022-1.32,3.302l3.449,8.14
									c0.545,1.282,2.059,1.903,3.336,1.358c0,0,1.657-0.729,2.787-1.212c1.132-0.481,2.825,1.687,2.825,1.687
									c2.051,2.646,4.476,5.028,7.222,7.076v0.039c0.058,0.04,0.127,0.065,0.185,0.108c0.424,0.332,1.975,1.684,1.576,2.678
									c-0.457,1.137-1.135,2.822-1.135,2.822c-0.517,1.292,0.101,2.746,1.394,3.263l8.25,3.303
									c1.292,0.517,2.744-0.102,3.262-1.394c0,0,0.68-1.685,1.138-2.824c0.401-0.996,2.437-0.859,2.969-0.808
									c3.628,0.477,7.261,0.411,10.782-0.148c0.789-0.063,2.424-0.078,2.787,0.771c0.482,1.13,1.173,2.822,1.173,2.822
									c0.544,1.28,2.058,1.867,3.335,1.32l8.141-3.483c1.279-0.545,1.865-2.019,1.32-3.299c0,0-0.694-1.657-1.172-2.786
									c-0.484-1.129,1.686-2.824,1.686-2.824c2.766-2.147,5.259-4.687,7.368-7.59c0.516-0.599,1.64-1.737,2.493-1.394
									c1.14,0.458,2.825,1.138,2.825,1.138c1.292,0.519,2.78-0.102,3.3-1.397l3.3-8.249c0.521-1.294-0.099-2.744-1.394-3.261
									c0,0-1.684-0.68-2.822-1.138c-1.022-0.411-0.855-2.548-0.807-3.006c0.455-3.486,0.394-6.943-0.111-10.338
									c0,0-0.02-0.142-0.037-0.293c-0.007-0.038,0.006-0.077,0-0.113c-0.062-0.788-0.078-2.426,0.77-2.786
									c1.129-0.485,2.825-1.207,2.825-1.207c1.277-0.547,1.865-2.024,1.32-3.304l-3.485-8.14c-0.544-1.282-2.021-1.901-3.3-1.358
									c0,0-1.693,0.729-2.825,1.212c-1.129,0.481-2.787-1.687-2.787-1.687h-0.036c-2.058-2.649-4.468-5.062-7.224-7.113
									c0.003,0-2.218-1.612-1.759-2.752c0.457-1.14,1.137-2.86,1.137-2.86c0.52-1.29-0.101-2.744-1.393-3.261l-8.214-3.303
									C-384.306-1664.436-384.645-1664.492-384.972-1664.489z M-396.631-1641.682c2.568-0.044,5.201,0.409,7.734,1.431
									c10.138,4.078,15.04,15.6,10.964,25.741c-4.077,10.14-15.601,15.077-25.741,10.998c-10.139-4.077-15.043-15.6-10.961-25.739
									C-411.577-1636.854-404.343-1641.545-396.631-1641.682z M-396.925-1628.152c-3.171,0.324-5.649,3.017-5.649,6.27
									c0,3.471,2.836,6.271,6.309,6.271c3.469,0,6.269-2.799,6.269-6.271c0-3.47-2.797-6.27-6.269-6.27
									C-396.483-1628.152-396.714-1628.173-396.925-1628.152z"/>
								<g opacity="0">
									<path fill="none" stroke="#FFFFFF" stroke-width="1.9393" d="M-384.972-1664.489c-0.983,0.017-1.884,0.61-2.274,1.578
										c0,0-0.717,1.684-1.173,2.822c-0.345,0.854-1.96,0.89-2.752,0.846c-1.919-0.261-3.845-0.365-5.754-0.331
										c-1.6,0.03-3.198,0.176-4.77,0.403l-0.036-0.036c0.004,0-2.707,0.434-3.19-0.7c-0.482-1.129-1.208-2.822-1.208-2.822
										c-0.547-1.28-2.02-1.864-3.3-1.32l-8.178,3.486c-1.279,0.544-1.864,2.021-1.32,3.296c0,0,0.731,1.659,1.209,2.791
										c0.482,1.129-1.721,2.824-1.721,2.824c-2.64,2.045-4.995,4.481-7.039,7.223h-0.038c0,0.002-1.648,2.219-2.787,1.759
										c-1.14-0.458-2.823-1.138-2.823-1.138c-1.292-0.517-2.747,0.14-3.265,1.432l-3.3,8.214
										c-0.517,1.292,0.102,2.746,1.395,3.263c0,0,1.685,0.678,2.824,1.136c1.14,0.459,0.769,3.19,0.769,3.19
										c-0.433,3.422-0.382,6.823,0.112,10.158c0,0,0.393,2.71-0.736,3.189c-1.129,0.483-2.787,1.209-2.787,1.209
										c-1.279,0.546-1.864,2.022-1.32,3.302l3.449,8.14c0.545,1.282,2.059,1.903,3.336,1.358c0,0,1.657-0.729,2.787-1.212
										c1.132-0.481,2.825,1.687,2.825,1.687c2.051,2.646,4.476,5.028,7.222,7.076v0.039c0.058,0.04,0.127,0.065,0.185,0.108
										c0.424,0.332,1.975,1.684,1.576,2.678c-0.457,1.137-1.135,2.822-1.135,2.822c-0.517,1.292,0.101,2.746,1.394,3.263
										l8.25,3.303c1.292,0.517,2.744-0.102,3.262-1.394c0,0,0.68-1.685,1.138-2.824c0.401-0.996,2.437-0.859,2.969-0.808
										c3.628,0.477,7.261,0.411,10.782-0.148c0.789-0.063,2.424-0.078,2.787,0.771c0.482,1.13,1.173,2.822,1.173,2.822
										c0.544,1.28,2.058,1.867,3.335,1.32l8.141-3.483c1.279-0.545,1.865-2.019,1.32-3.299c0,0-0.694-1.657-1.172-2.786
										c-0.484-1.129,1.686-2.824,1.686-2.824c2.766-2.147,5.259-4.687,7.368-7.59c0.516-0.599,1.64-1.737,2.493-1.394
										c1.14,0.458,2.825,1.138,2.825,1.138c1.292,0.519,2.78-0.102,3.3-1.397l3.3-8.249c0.521-1.294-0.099-2.744-1.394-3.261
										c0,0-1.684-0.68-2.822-1.138c-1.022-0.411-0.855-2.548-0.807-3.006c0.455-3.486,0.394-6.943-0.111-10.338
										c0,0-0.02-0.142-0.037-0.293c-0.007-0.038,0.006-0.077,0-0.113c-0.062-0.788-0.078-2.426,0.77-2.786
										c1.129-0.485,2.825-1.207,2.825-1.207c1.277-0.547,1.865-2.024,1.32-3.304l-3.485-8.14c-0.544-1.282-2.021-1.901-3.3-1.358
										c0,0-1.693,0.729-2.825,1.212c-1.129,0.481-2.787-1.687-2.787-1.687h-0.036c-2.058-2.649-4.468-5.062-7.224-7.113
										c0.003,0-2.218-1.612-1.759-2.752c0.457-1.14,1.137-2.86,1.137-2.86c0.52-1.29-0.101-2.744-1.393-3.261l-8.214-3.303
										C-384.306-1664.436-384.645-1664.492-384.972-1664.489z M-396.631-1641.682c2.568-0.044,5.201,0.409,7.734,1.431
										c10.138,4.078,15.04,15.6,10.964,25.741c-4.077,10.14-15.601,15.077-25.741,10.998
										c-10.139-4.077-15.043-15.6-10.961-25.739C-411.577-1636.854-404.343-1641.545-396.631-1641.682z M-396.925-1628.152
										c-3.171,0.324-5.649,3.017-5.649,6.27c0,3.471,2.836,6.271,6.309,6.271c3.469,0,6.269-2.799,6.269-6.271
										c0-3.47-2.797-6.27-6.269-6.27C-396.483-1628.152-396.714-1628.173-396.925-1628.152z"/>
								</g>
							</g>
						</g>
					</g>
				</g>
				<g id="g3281-1-4_9_" transform="matrix(0.70498521,0,0,0.70498521,-27.151326,540.86116)">
					<g id="path3283-1_10_">
						<path fill="#00AA44" d="M-673.719-2399.726c-0.979,0.016-1.896,0.642-2.287,1.612c0,0-0.688,1.671-1.143,2.807
							c-0.457,1.142-3.171,0.782-3.171,0.782v0.051c-1.8-0.223-3.574-0.344-5.358-0.312c-1.589,0.027-3.175,0.191-4.735,0.417
							l-0.051-0.051c0,0-2.741,0.4-3.225-0.728c-0.482-1.128-1.197-2.813-1.197-2.813c-0.545-1.28-1.997-1.843-3.276-1.298
							l-8.168,3.484c-1.279,0.544-1.896,1.999-1.351,3.277c0,0,0.715,1.679,1.197,2.806c0.482,1.128-1.664,2.814-1.664,2.814
							c-2.654,2.05-5.073,4.473-7.127,7.226c0,0.003-1.616,2.227-2.758,1.768c-1.138-0.459-2.809-1.145-2.809-1.145
							c-1.288-0.518-2.758,0.115-3.275,1.405l-3.328,8.22c-0.52,1.292,0.113,2.756,1.402,3.275c0,0,1.671,0.688,2.81,1.144
							c1.139,0.459,0.782,3.173,0.782,3.173h0.05c-0.434,3.42-0.434,6.813,0.054,10.141c0,0,0.4,2.743-0.728,3.229
							c-1.131,0.478-2.758,1.194-2.758,1.194c-1.279,0.544-1.896,1.996-1.353,3.275l3.487,8.172c0.545,1.279,1.997,1.896,3.276,1.35
							c0,0,1.679-0.712,2.807-1.197c0.849-0.363,2.023,0.76,2.549,1.354c2.146,2.83,4.709,5.383,7.644,7.538
							c0.372,0.29,2.024,1.633,1.615,2.654c-0.461,1.143-1.143,2.865-1.143,2.865c-0.521,1.287,0.113,2.753,1.405,3.275l8.218,3.277
							c1.292,0.516,2.759-0.116,3.275-1.405c0,0,0.688-1.668,1.144-2.81c0.461-1.143,3.225-0.783,3.225-0.783
							c3.558,0.45,7.104,0.399,10.559-0.153c0.788-0.062,2.396-0.066,2.759,0.779c0.482,1.132,1.194,2.811,1.194,2.811
							c0.545,1.28,2.051,1.847,3.328,1.299l8.114-3.487c1.279-0.543,1.896-1.996,1.351-3.275c0,0-0.715-1.682-1.194-2.81
							c-0.482-1.128,1.715-2.807,1.715-2.807c2.645-2.055,5.027-4.481,7.076-7.229c0.085-0.118,0.171-0.246,0.258-0.365
							c0.514-0.599,1.694-1.746,2.551-1.405c1.138,0.459,2.81,1.147,2.81,1.147c1.288,0.517,2.755-0.113,3.274-1.405l3.328-8.22
							c0.52-1.288-0.11-2.756-1.402-3.276c0,0-1.721-0.682-2.862-1.143c-1.138-0.462-0.779-3.173-0.779-3.173h-0.052
							c0.434-3.421,0.439-6.815-0.051-10.145c-0.003,0-0.403-2.743,0.728-3.224c1.128-0.483,2.81-1.198,2.81-1.198
							c1.28-0.545,1.898-2.044,1.353-3.328l-3.487-8.113c-0.545-1.284-2.048-1.899-3.328-1.354c0,0-1.676,0.715-2.808,1.198
							c-1.128,0.481-2.809-1.717-2.809-1.717c-2.055-2.646-4.478-5.029-7.23-7.073c0.003,0-0.11-0.073-0.155-0.105
							c-0.07-0.051-0.138-0.107-0.208-0.158c-0.602-0.513-1.749-1.639-1.405-2.496c0.459-1.136,1.143-2.858,1.143-2.858
							c0.521-1.292-0.113-2.759-1.402-3.277l-8.218-3.273C-673.052-2399.65-673.391-2399.732-673.719-2399.726L-673.719-2399.726z
							 M-685.368-2376.892c2.568-0.048,5.217,0.435,7.75,1.456c10.137,4.078,15.052,15.554,10.971,25.692
							c-4.078,10.141-15.605,15.054-25.746,10.976c-10.137-4.081-15.05-15.608-10.971-25.747
							C-700.305-2372.122-693.078-2376.757-685.368-2376.892z M-685.005-2363.369c-3.471,0-6.292,2.767-6.292,6.24
							c0,3.471,2.821,6.291,6.292,6.291c3.473,0,6.294-2.821,6.294-6.291C-678.711-2360.603-681.532-2363.369-685.005-2363.369z"/>
						<g opacity="0">
							<path fill="none" stroke="#FFFFFF" stroke-width="1.9393" d="M-673.719-2399.726c-0.979,0.016-1.896,0.642-2.287,1.612
								c0,0-0.688,1.671-1.143,2.807c-0.457,1.142-3.171,0.782-3.171,0.782v0.051c-1.8-0.223-3.574-0.344-5.358-0.312
								c-1.589,0.027-3.175,0.191-4.735,0.417l-0.051-0.051c0,0-2.741,0.4-3.225-0.728c-0.482-1.128-1.197-2.813-1.197-2.813
								c-0.545-1.28-1.997-1.843-3.276-1.298l-8.168,3.484c-1.279,0.544-1.896,1.999-1.351,3.277c0,0,0.715,1.679,1.197,2.806
								c0.482,1.128-1.664,2.814-1.664,2.814c-2.654,2.05-5.073,4.473-7.127,7.226c0,0.003-1.616,2.227-2.758,1.768
								c-1.138-0.459-2.809-1.145-2.809-1.145c-1.288-0.518-2.758,0.115-3.275,1.405l-3.328,8.22
								c-0.52,1.292,0.113,2.756,1.402,3.275c0,0,1.671,0.688,2.81,1.144c1.139,0.459,0.782,3.173,0.782,3.173h0.05
								c-0.434,3.42-0.434,6.813,0.054,10.141c0,0,0.4,2.743-0.728,3.229c-1.131,0.478-2.758,1.194-2.758,1.194
								c-1.279,0.544-1.896,1.996-1.353,3.275l3.487,8.172c0.545,1.279,1.997,1.896,3.276,1.35c0,0,1.679-0.712,2.807-1.197
								c0.849-0.363,2.023,0.76,2.549,1.354c2.146,2.83,4.709,5.383,7.644,7.538c0.372,0.29,2.024,1.633,1.615,2.654
								c-0.461,1.143-1.143,2.865-1.143,2.865c-0.521,1.287,0.113,2.753,1.405,3.275l8.218,3.277
								c1.292,0.516,2.759-0.116,3.275-1.405c0,0,0.688-1.668,1.144-2.81c0.461-1.143,3.225-0.783,3.225-0.783
								c3.558,0.45,7.104,0.399,10.559-0.153c0.788-0.062,2.396-0.066,2.759,0.779c0.482,1.132,1.194,2.811,1.194,2.811
								c0.545,1.28,2.051,1.847,3.328,1.299l8.114-3.487c1.279-0.543,1.896-1.996,1.351-3.275c0,0-0.715-1.682-1.194-2.81
								c-0.482-1.128,1.715-2.807,1.715-2.807c2.645-2.055,5.027-4.481,7.076-7.229c0.085-0.118,0.171-0.246,0.258-0.365
								c0.514-0.599,1.694-1.746,2.551-1.405c1.138,0.459,2.81,1.147,2.81,1.147c1.288,0.517,2.755-0.113,3.274-1.405l3.328-8.22
								c0.52-1.288-0.11-2.756-1.402-3.276c0,0-1.721-0.682-2.862-1.143c-1.138-0.462-0.779-3.173-0.779-3.173h-0.052
								c0.434-3.421,0.439-6.815-0.051-10.145c-0.003,0-0.403-2.743,0.728-3.224c1.128-0.483,2.81-1.198,2.81-1.198
								c1.28-0.545,1.898-2.044,1.353-3.328l-3.487-8.113c-0.545-1.284-2.048-1.899-3.328-1.354c0,0-1.676,0.715-2.808,1.198
								c-1.128,0.481-2.809-1.717-2.809-1.717c-2.055-2.646-4.478-5.029-7.23-7.073c0.003,0-0.11-0.073-0.155-0.105
								c-0.07-0.051-0.138-0.107-0.208-0.158c-0.602-0.513-1.749-1.639-1.405-2.496c0.459-1.136,1.143-2.858,1.143-2.858
								c0.521-1.292-0.113-2.759-1.402-3.277l-8.218-3.273C-673.052-2399.65-673.391-2399.732-673.719-2399.726L-673.719-2399.726z
								 M-685.368-2376.892c2.568-0.048,5.217,0.435,7.75,1.456c10.137,4.078,15.052,15.554,10.971,25.692
								c-4.078,10.141-15.605,15.054-25.746,10.976c-10.137-4.081-15.05-15.608-10.971-25.747
								C-700.305-2372.122-693.078-2376.757-685.368-2376.892z M-685.005-2363.369c-3.471,0-6.292,2.767-6.292,6.24
								c0,3.471,2.821,6.291,6.292,6.291c3.473,0,6.294-2.821,6.294-6.291C-678.711-2360.603-681.532-2363.369-685.005-2363.369z"/>
						</g>
					</g>
				</g>
				<g id="g3279-9-5_9_" transform="matrix(0.52211836,0.12894298,-0.12894298,0.52211836,54.420624,567.8239)">
					<g id="g3281-3-9_9_">
						<g id="path3283-6_10_">
							<path fill="#0088AA" d="M-1755.381-2748.293l-8.196,3.504c-1.277,0.544-1.844,1.986-1.299,3.266c0,0,0.702,1.669,1.178,2.796
								c0.484,1.132-1.692,2.812-1.692,2.812c-2.734,2.111-5.182,4.624-7.282,7.482c-0.251,0.327-1.596,1.983-2.632,1.564
								c-1.139-0.462-2.807-1.131-2.807-1.131c-1.294-0.518-2.725,0.071-3.245,1.364l-3.299,8.254
								c-0.52,1.296,0.074,2.731,1.362,3.247c0,0,1.671,0.679,2.808,1.135c1.14,0.458,0.784,3.176,0.784,3.176l0.085,0.052
								c-0.427,3.399-0.385,6.776,0.097,10.089l-0.061,0.017c0,0,0.443,2.704-0.685,3.189c-1.133,0.479-2.867,1.198-2.867,1.198
								c-1.283,0.545-1.828,2.055-1.282,3.334l3.478,8.129c0.547,1.283,2.009,1.913,3.29,1.367c0,0,1.666-0.702,2.797-1.188
								c1.131-0.481,2.808,1.698,2.808,1.698c2.035,2.624,4.477,4.963,7.204,6.995l0.017,0.069c0,0,2.265,1.642,1.811,2.785
								c-0.458,1.14-1.199,2.824-1.199,2.824c-0.52,1.289,0.157,2.772,1.448,3.295l8.19,3.313c1.294,0.518,2.777-0.16,3.294-1.445
								c0,0,0.677-1.672,1.133-2.808c0.458-1.143,3.177-0.785,3.177-0.785l0.052-0.085c3.395,0.427,6.779,0.383,10.088-0.101
								l0.013,0.062c0,0,2.727-0.376,3.208,0.757c0.48,1.129,1.181,2.799,1.181,2.799c0.547,1.281,2.073,1.896,3.354,1.348
								l8.13-3.484c1.279-0.548,1.895-2.066,1.347-3.349c0,0-0.766-1.655-1.249-2.782c-0.484-1.128,1.696-2.805,1.696-2.805
								c2.647-2.05,5.02-4.482,7.063-7.221l0.068-0.017c0.001,0.003,1.662-2.202,2.8-1.743c1.139,0.455,2.807,1.128,2.807,1.128
								c1.292,0.524,2.777-0.151,3.296-1.445l3.314-8.193c0.52-1.289-0.154-2.777-1.445-3.296c0,0-1.668-0.673-2.811-1.13
								c-1.14-0.458-0.784-3.176-0.784-3.176l-0.08-0.049c0.423-3.398,0.38-6.781-0.104-10.087l0.068-0.017
								c-0.003,0.001-0.379-2.725,0.753-3.208c1.126-0.485,2.796-1.184,2.796-1.184c1.279-0.548,1.846-1.99,1.3-3.268l-3.432-8.211
								c-0.545-1.283-2.061-1.832-3.337-1.283c0,0-1.668,0.7-2.8,1.181c-1.129,0.482-2.807-1.693-2.807-1.693
								c-2.057-2.659-4.479-5.074-7.239-7.135c0.003,0.003-2.183-1.594-1.728-2.729c0.457-1.139,1.117-2.873,1.117-2.873
								c0.519-1.298-0.139-2.713-1.427-3.231l-8.195-3.315c-1.291-0.519-2.792,0.091-3.313,1.381c0,0-0.672,1.671-1.133,2.808
								c-0.457,1.139-3.176,0.784-3.176,0.784l-0.049,0.081c-3.4-0.419-6.771-0.388-10.084,0.107l-0.017-0.068
								c0,0-2.708,0.444-3.192-0.69c-0.482-1.129-1.179-2.798-1.179-2.798C-1752.644-2748.204-1754.103-2748.837-1755.381-2748.293z
								 M-1746.647-2725.448c3.782-0.862,7.869-0.605,11.754,0.96c10.137,4.08,15.065,15.591,10.99,25.73
								c-4.083,10.138-15.593,15.07-25.73,10.983c-10.14-4.076-15.067-15.583-10.989-25.725c2.295-5.703,6.968-9.766,12.405-11.488
								C-1747.696-2725.156-1747.193-2725.324-1746.647-2725.448z M-1743.528-2712.243c-2.866,0.584-5.016,3.114-5.015,6.153
								c0.004,3.474,2.779,6.252,6.253,6.254c3.469-0.001,6.314-2.793,6.317-6.268c-0.003-3.471-2.792-6.315-6.268-6.316
								C-1742.675-2712.424-1743.117-2712.326-1743.528-2712.243z"/>
							<g opacity="0">
								<path fill="none" stroke="#FFFFFF" stroke-width="1.9393" d="M-1755.381-2748.293l-8.196,3.504
									c-1.277,0.544-1.844,1.986-1.299,3.266c0,0,0.702,1.669,1.178,2.796c0.484,1.132-1.692,2.812-1.692,2.812
									c-2.734,2.111-5.182,4.624-7.282,7.482c-0.251,0.327-1.596,1.983-2.632,1.564c-1.139-0.462-2.807-1.131-2.807-1.131
									c-1.294-0.518-2.725,0.071-3.245,1.364l-3.299,8.254c-0.52,1.296,0.074,2.731,1.362,3.247c0,0,1.671,0.679,2.808,1.135
									c1.14,0.458,0.784,3.176,0.784,3.176l0.085,0.052c-0.427,3.399-0.385,6.776,0.097,10.089l-0.061,0.017
									c0,0,0.443,2.704-0.685,3.189c-1.133,0.479-2.867,1.198-2.867,1.198c-1.283,0.545-1.828,2.055-1.282,3.334l3.478,8.129
									c0.547,1.283,2.009,1.913,3.29,1.367c0,0,1.666-0.702,2.797-1.188c1.131-0.481,2.808,1.698,2.808,1.698
									c2.035,2.624,4.477,4.963,7.204,6.995l0.017,0.069c0,0,2.265,1.642,1.811,2.785c-0.458,1.14-1.199,2.824-1.199,2.824
									c-0.52,1.289,0.157,2.772,1.448,3.295l8.19,3.313c1.294,0.518,2.777-0.16,3.294-1.445c0,0,0.677-1.672,1.133-2.808
									c0.458-1.143,3.177-0.785,3.177-0.785l0.052-0.085c3.395,0.427,6.779,0.383,10.088-0.101l0.013,0.062
									c0,0,2.727-0.376,3.208,0.757c0.48,1.129,1.181,2.799,1.181,2.799c0.547,1.281,2.073,1.896,3.354,1.348l8.13-3.484
									c1.279-0.548,1.895-2.066,1.347-3.349c0,0-0.766-1.655-1.249-2.782c-0.484-1.128,1.696-2.805,1.696-2.805
									c2.647-2.05,5.02-4.482,7.063-7.221l0.068-0.017c0.001,0.003,1.662-2.202,2.8-1.743c1.139,0.455,2.807,1.128,2.807,1.128
									c1.292,0.524,2.777-0.151,3.296-1.445l3.314-8.193c0.52-1.289-0.154-2.777-1.445-3.296c0,0-1.668-0.673-2.811-1.13
									c-1.14-0.458-0.784-3.176-0.784-3.176l-0.08-0.049c0.423-3.398,0.38-6.781-0.104-10.087l0.068-0.017
									c-0.003,0.001-0.379-2.725,0.753-3.208c1.126-0.485,2.796-1.184,2.796-1.184c1.279-0.548,1.846-1.99,1.3-3.268l-3.432-8.211
									c-0.545-1.283-2.061-1.832-3.337-1.283c0,0-1.668,0.7-2.8,1.181c-1.129,0.482-2.807-1.693-2.807-1.693
									c-2.057-2.659-4.479-5.074-7.239-7.135c0.003,0.003-2.183-1.594-1.728-2.729c0.457-1.139,1.117-2.873,1.117-2.873
									c0.519-1.298-0.139-2.713-1.427-3.231l-8.195-3.315c-1.291-0.519-2.792,0.091-3.313,1.381c0,0-0.672,1.671-1.133,2.808
									c-0.457,1.139-3.176,0.784-3.176,0.784l-0.049,0.081c-3.4-0.419-6.771-0.388-10.084,0.107l-0.017-0.068
									c0,0-2.708,0.444-3.192-0.69c-0.482-1.129-1.179-2.798-1.179-2.798C-1752.644-2748.204-1754.103-2748.837-1755.381-2748.293
									z M-1746.647-2725.448c3.782-0.862,7.869-0.605,11.754,0.96c10.137,4.08,15.065,15.591,10.99,25.73
									c-4.083,10.138-15.593,15.07-25.73,10.983c-10.14-4.076-15.067-15.583-10.989-25.725c2.295-5.703,6.968-9.766,12.405-11.488
									C-1747.696-2725.156-1747.193-2725.324-1746.647-2725.448z M-1743.528-2712.243c-2.866,0.584-5.016,3.114-5.015,6.153
									c0.004,3.474,2.779,6.252,6.253,6.254c3.469-0.001,6.314-2.793,6.317-6.268c-0.003-3.471-2.792-6.315-6.268-6.316
									C-1742.675-2712.424-1743.117-2712.326-1743.528-2712.243z"/>
							</g>
						</g>
					</g>
				</g>
			</g>
		</g>
	</g>
</g>
<g>
	<g opacity="0.75">
		
			<text transform="matrix(1 0 0 1 9.3809 302.086)" fill="#FFFFFF" font-family="'BitstreamVeraSansMono-Roman'" font-size="20.2178">Code</text>
		
			<text transform="matrix(1 0 0 1 58.0703 302.086)" fill="#FFFFFF" font-family="'BitstreamVeraSansMono-Roman'" font-size="20.2178">Generator</text>
	</g>
	<g>
		<g>
			
				<text transform="matrix(1 0 0 1 8.3809 301.086)" fill="#502D16" font-family="'BitstreamVeraSansMono-Roman'" font-size="20.2178">Code</text>
			
				<text transform="matrix(1 0 0 1 57.0703 301.086)" fill="#0088AA" font-family="'BitstreamVeraSansMono-Roman'" font-size="20.2178">Generator</text>
		</g>
	</g>
</g>
<rect x="175" y="0" opacity="0.3" fill="#FFFFFF" enable-background="new    " width="321" height="312"/>
<line fill="none" stroke="#B8B5B5" stroke-miterlimit="10" x1="175" y1="0" x2="175" y2="312"/>
</svg>
